<svg xmlns="http://www.w3.org/2000/svg" width="152.871" height="18.442" viewBox="0 0 152.871 18.442"><g transform="translate(-460 -7515)"><path d="M479.214,606.742H476.37l-6.206,17.841h3.206l1.215-3.7h6.439l1.215,3.7h3.18Zm-3.8,11.558,2.379-7.214,2.379,7.214Z" transform="translate(127.451 6908.49)"/><path d="M344.587,617.5V606.9h-3v10.627c0,3.413-1.215,4.835-3.672,4.835s-3.672-1.422-3.672-4.835V606.9h-3v10.627c0,5.249,2.715,7.447,6.671,7.447S344.587,622.776,344.587,617.5Z" transform="translate(146.634 6908.469)"/><path d="M399.847,622h-7.938v-5.352h7.163V614.06h-7.163v-4.706h7.938v-2.612H388.91v17.841h10.938Z" transform="translate(138.671 6908.49)"/><path d="M316.708,606.9,310.5,624.742h3.206l1.215-3.7h6.439l1.215,3.7h3.181L319.552,606.9Zm-.957,11.558,2.379-7.214,2.379,7.214Z" transform="translate(149.498 6908.469)"/><path d="M420.443,624.584V606.742h-2.9v12.282L410.2,606.742h-2.586v17.841h2.9V612.457l7.266,12.127Z" transform="translate(136.088 6908.49)"/><path d="M381.026,624.584V606.742h-3v7.318H371.2v-7.318h-3v17.841h3v-7.938h6.826v7.938Z" transform="translate(141.531 6908.49)"/><path d="M459.526,609.084c1.965,0,3.129.983,3.594,3.155h2.9c-.595-3.879-2.948-5.766-6.49-5.766-3.982,0-6.671,2.4-6.671,8.016v2.275c0,5.611,2.689,8.016,6.671,8.016,3.542,0,5.87-1.758,6.464-5.766h-2.87c-.465,2.172-1.551,3.155-3.594,3.155-2.379,0-3.672-1.6-3.672-5.4v-2.275C455.854,610.635,457.147,609.084,459.526,609.084Z" transform="translate(129.841 6908.528)"/><rect width="2.999" height="17.841" transform="translate(575.468 7515.233)"/><path d="M354.939,624.663h3v-15.23h4.218l.874-2.612H350.4v2.612h4.535Z" transform="translate(143.988 6908.479)"/><path d="M434.059,624.663v-15.23h4.509v-2.612H426.793l-.879,2.612h5.146v15.23Z" transform="translate(133.562 6908.479)"/></g></svg>