<svg xmlns="http://www.w3.org/2000/svg" width="192" height="43" viewBox="0 0 192 43"><path d="M81.69,38c0-1.23-.85-1.85-2.28-1.85H77.29v6.22h1V39.85h1.21l1.2,2.53h1.15l-1.32-2.7A1.62,1.62,0,0,0,81.69,38ZM79.33,39h-1V37.07h1c.89,0,1.32.24,1.32.94s-.43.94-1.32.94Z" fill="#fff"/><path d="M83.7,42.38h3.81v-.9H84.74V39.61h2.5v-.9h-2.5V37.07h2.77v-.91H83.7Z" fill="#fff"/><path d="M63,36.16l-2.17,6.22h1.12l.43-1.29h2.24L65,42.38h1.11L64,36.16Zm-.34,4,.83-2.52.83,2.52Z" fill="#fff"/><path d="M39.19,40.1h1.23c-.07,1-.47,1.45-1.26,1.45s-1.28-.54-1.28-1.89v-.79c0-1.34.45-1.88,1.28-1.88a1.2,1.2,0,0,1,1.25,1.1h1a2.13,2.13,0,0,0-2.24-2h0c-1.39,0-2.32.84-2.32,2.84v.75c0,1.95.93,2.79,2.32,2.79s2.29-.84,2.29-2.79v-.48H39.19Z" fill="#fff"/><path d="M44.51,36.16h-1v6.22h3.81v-.9H44.51Z" fill="#fff"/><path d="M68.77,36.16h-1v6.22h3.81v-.9H68.77Z" fill="#fff"/><path d="M50.77,36.08c-1.38,0-2.32.84-2.32,2.79v.8c0,1.95.94,2.79,2.32,2.79s2.33-.84,2.33-2.79v-.8C53.1,36.92,52.17,36.08,50.77,36.08Zm1.29,3.59c0,1.34-.46,1.88-1.29,1.88S49.5,41,49.5,39.67v-.8c0-1.34.45-1.88,1.27-1.88s1.29.54,1.29,1.88Z" fill="#fff"/><path d="M58.43,39.12a1.41,1.41,0,0,0,.91-1.35c0-1.07-.75-1.61-2.21-1.61h-2v6.22h2.2c1.61,0,2.21-.85,2.21-1.79A1.43,1.43,0,0,0,58.43,39.12Zm-2.26-2.06h.89c1,0,1.23.29,1.23.77s-.32.87-1.1.87h-1Zm1.09,4.42H56.17V39.6h1c.92,0,1.35.28,1.35.94s-.39.94-1.23.94Z" fill="#fff"/><path d="M88.79,37.07h1.79v5.31h1V37.07h1.79v-.91H88.79Z" fill="#fff"/><path d="M141.57,40.44,139,36.16h-.9v6.22h1V38.15l2.54,4.23h.92V36.16h-1Z" fill="#fff"/><path d="M131.83,37.07h1.8v5.31h1V37.07h1.78v-.91h-4.62Z" fill="#fff"/><path d="M130.53,38c0-1.23-.85-1.85-2.29-1.85h-2.11v6.22h1V39.85h1.21l1.2,2.53h1.15l-1.32-2.7A1.62,1.62,0,0,0,130.53,38Zm-2.36.94h-1V37.07h1c.89,0,1.32.24,1.32.94s-.43.94-1.32.94Z" fill="#fff"/><path d="M155,38c0-1.23-.85-1.85-2.29-1.85h-2.11v6.22h1V39.85h1.21l1.2,2.53h1.15l-1.32-2.7A1.64,1.64,0,0,0,155,38ZM152.6,39h-1V37.07h1c.88,0,1.32.24,1.32.94s-.43.94-1.32.94Z" fill="#fff"/><path d="M121.36,36.16l-2.17,6.22h1.12l.42-1.29H123l.42,1.29h1.11l-2.16-6.22Zm-.34,4,.83-2.52.83,2.52Z" fill="#fff"/><path d="M96.26,36.16l-2.17,6.22h1.12l.42-1.29h2.25l.42,1.29h1.11l-2.16-6.22Zm-.34,4,.83-2.52.83,2.52Z" fill="#fff"/><path d="M144.85,42.38h3.81v-.9h-2.77V39.61h2.5v-.9h-2.5V37.07h2.77v-.91h-3.81Z" fill="#fff"/><path d="M116.19,36.16h-2.11v6.22h1V40.11h1.07c1.45,0,2.29-.72,2.29-2S117.63,36.16,116.19,36.16Zm-.1,3.05h-1V37.07h1c1,0,1.35.38,1.35,1.06s-.4,1.08-1.35,1.08Z" fill="#fff"/><path d="M105.56,36.16h-1v6.22h3.81v-.9h-2.77Z" fill="#fff"/><rect x="101.12" y="36.16" width="1.04" height="6.22" fill="#fff"/><path d="M183.48.83h-3.54l-7.73,22.22h4l1.52-4.6h8l1.51,4.6h4Zm-4.73,14.4,3-9,3,9Z" fill="#fff"/><path d="M39.68,14.2V1H35.94V14.24c0,4.25-1.51,6-4.57,6s-4.58-1.77-4.58-6V1H23.06V14.24c0,6.53,3.38,9.27,8.31,9.27S39.68,20.77,39.68,14.2Z" fill="#fff"/><path d="M98.59,19.83H88.71V13.17h8.92V9.94H88.71V4.09h9.88V.83H85V23.06H98.6Z" fill="#fff"/><path d="M8.52,1,.79,23.22h4l1.51-4.6h8l1.51,4.6h4L12.07,1ZM7.33,15.4l3-9,3,9Z" fill="#fff"/><path d="M121,23.05V.83h-3.61v15.3L108.28.83h-3.22V23.05h3.6V8l9,15.1Z" fill="#fff"/><path d="M78.71,23.05V.83H75V9.94h-8.5V.83H62.73V23.05h3.74V13.16H75v9.89Z" fill="#fff"/><path d="M161.93,3.79c2.45,0,3.9,1.23,4.48,3.93H170c-.74-4.83-3.67-7.18-8.09-7.18-5,0-8.31,3-8.31,10v2.84c0,7,3.35,10,8.31,10,4.42,0,7.31-2.19,8.06-7.18h-3.58c-.58,2.71-1.93,3.93-4.48,3.93-3,0-4.57-2-4.57-6.73V10.52C157.36,5.73,159,3.79,161.93,3.79Z" fill="#fff"/><rect x="144.62" y="0.83" width="3.74" height="22.22" fill="#fff"/><path d="M49.28,23.14H53v-19h5.26L59.36.92H43.62V4.17h5.65Z" fill="#fff"/><path d="M134.85,23.14v-19h5.61V.92H125.79l-1.1,3.25h6.41v19Z" fill="#fff"/></svg>