<svg xmlns="http://www.w3.org/2000/svg" width="307" height="24" viewBox="0 0 307 24"><path d="M8.55,1,.82,23.2h4l1.52-4.61h8l1.51,4.61h4L12.09,1ZM7.36,15.37l3-9,3,9Z" fill="#fff"/><rect x="144.65" y="0.8" width="3.74" height="22.23" fill="#fff"/><path d="M75,9.92h-8.5V.8H62.77V23h3.74V13.14H75V23h3.73V.8H75Z" fill="#fff"/><path d="M117.45,16.1,108.31.8h-3.22V23h3.61V7.92l9,15.11h3.31V.8h-3.6Z" fill="#fff"/><path d="M36,14.21c0,4.25-1.51,6-4.57,6s-4.58-1.77-4.58-6V1H23.09V14.21c0,6.54,3.38,9.28,8.31,9.28s8.31-2.74,8.31-9.31V1H36Z" fill="#fff"/><path d="M85,23H98.63V19.81H88.74V13.14h8.92V9.92H88.74V4.06h9.89V.81H85Z" fill="#fff"/><path d="M162,3.77c2.44,0,3.9,1.22,4.47,3.93h3.61C169.31,2.87,166.38.51,162,.51c-5,0-8.31,3-8.31,10v2.83c0,7,3.35,10,8.31,10,4.42,0,7.32-2.19,8.06-7.19h-3.58c-.58,2.71-1.93,3.93-4.48,3.93-3,0-4.57-2-4.57-6.73V10.5C157.39,5.7,159,3.77,162,3.77Z" fill="#fff"/><path d="M180,.8,172.24,23h4l1.52-4.61h8L187.28,23h4L183.51.8Zm-1.19,14.4,3-9,3,9Z" fill="#fff"/><path d="M43.66,4.14h5.65v19H53v-19H58.3L59.39.89H43.66Z" fill="#fff"/><path d="M124.73,4.14h6.41v19h3.74v-19h5.61V.89H125.83Z" fill="#fff"/><path d="M298,.81h-7.57V23h3.74V14.91H298c5.15,0,8.18-2.58,8.18-7.08S303.12.81,298,.81Zm-.39,10.88h-3.44V4.06h3.44c3.41,0,4.83,1.35,4.83,3.77s-1.41,3.86-4.83,3.86Z" fill="#fff"/><path d="M254.07.52c-5,0-8.31,3-8.31,10v2.83c0,7,3.35,10,8.31,10s8.34-3,8.34-10V10.5C262.41,3.51,259.07.52,254.07.52Zm4.61,12.81c0,4.8-1.64,6.74-4.61,6.74s-4.57-1.94-4.57-6.74V10.5c0-4.8,1.61-6.73,4.57-6.73s4.61,1.93,4.61,6.73Z" fill="#fff"/><path d="M280.7,14c0,4.26-1.52,6-4.58,6s-4.57-1.78-4.57-6V.81h-3.74V14c0,6.54,3.39,9.28,8.31,9.28s8.31-2.74,8.31-9.31V.81H280.7Z" fill="#fff"/><path d="M241.07,7.44C241.07,3,238,.81,232.89.81h-7.57V23h3.74V14h4.31l4.29,9h4.12l-4.73-9.63A5.79,5.79,0,0,0,241.07,7.44Zm-8.44,3.35h-3.57V4.06h3.57c3.16,0,4.7.87,4.7,3.38s-1.54,3.35-4.7,3.35Z" fill="#fff"/><path d="M211.52,14.88h4.41c-.25,3.51-1.67,5.19-4.51,5.19s-4.57-1.94-4.57-6.74V10.5c0-4.8,1.61-6.73,4.57-6.73,2.52,0,3.93,1.35,4.48,3.93h3.61C218.8,3,215.93.52,211.42.52c-5,0-8.31,3-8.31,10.14v2.67c0,7,3.35,10,8.31,10s8.18-3,8.18-10v-1.7h-8.08Z" fill="#fff"/></svg>