<svg xmlns="http://www.w3.org/2000/svg" width="185" height="43" viewBox="0 0 185 43"><path d="M84.82,34.44h-1L85,35.72h.9l1.24-1.28H86.1l-.64.68Z" fill="#fff"/><path d="M72.11,35.66H73L74,34.51H72.83Z" fill="#fff"/><path d="M83.56,42.38h3.81v-.9H84.6V39.61h2.5v-.9H84.6V37.07h2.77v-.91H83.56Z" fill="#fff"/><path d="M80.28,40.44l-2.57-4.28h-.9v6.22h1V38.15l2.54,4.23h.92V36.16h-1Z" fill="#fff"/><path d="M92.73,40.44l-2.57-4.28h-.9v6.22h1V38.15l2.55,4.23h.92V36.16h-1Z" fill="#fff"/><path d="M72,36.16l-2.16,6.22H71l.42-1.29h2.25l.42,1.29H75.2L73,36.16Zm-.33,4,.83-2.52.83,2.52Z" fill="#fff"/><path d="M60.78,38.71H58.39V36.16h-1v6.22h1V39.61h2.39v2.77h1V36.16h-1Z" fill="#fff"/><path d="M68.5,38c0-1.23-.85-1.85-2.29-1.85H64.1v6.22h1V39.85h1.21l1.2,2.53H68.7l-1.32-2.7A1.62,1.62,0,0,0,68.5,38ZM66.14,39h-1V37.07h1c.89,0,1.32.24,1.32.94S67,39,66.14,39Z" fill="#fff"/><path d="M53.23,37a1.19,1.19,0,0,1,1.26,1.1h1a2.12,2.12,0,0,0-2.23-2h0c-1.39,0-2.32.84-2.32,2.79v.79c0,2,.93,2.8,2.32,2.8a2.09,2.09,0,0,0,2.25-1.91s0-.07,0-.1h-1a1.18,1.18,0,0,1-1.24,1.1h0C52.4,41.55,52,41,52,39.66v-.79C52,37.53,52.4,37,53.23,37Z" fill="#fff"/><path d="M113,35.66h.93l.93-1.15h-1.14Z" fill="#fff"/><path d="M117.39,36.16h-1v6.22h3.81v-.9h-2.77Z" fill="#fff"/><path d="M130,36.16l-2.16,6.22H129l.42-1.29h2.25l.42,1.29h1.11L131,36.16Zm-.33,4,.83-2.52.83,2.52Z" fill="#fff"/><rect x="112.95" y="36.16" width="1.04" height="6.22" fill="#fff"/><path d="M99.43,34.51H98.3l-.72,1.16h.92Z" fill="#fff"/><path d="M125.25,40.44l-2.56-4.28h-.9v6.22h1V38.15l2.54,4.23h.92V36.16h-1Z" fill="#fff"/><path d="M108.5,36.16h-2.1v6.22h2.1c1.4,0,2.33-.75,2.33-2.74V38.9C110.83,36.9,109.9,36.16,108.5,36.16Zm1.29,3.48c0,1.28-.4,1.84-1.29,1.84h-1V37.07h1c.89,0,1.29.55,1.29,1.83Z" fill="#fff"/><path d="M97.52,36.16l-2.17,6.22h1.12l.42-1.29h2.25l.42,1.29h1.11l-2.16-6.22Zm-.34,4L98,37.67l.83,2.52Z" fill="#fff"/><path d="M175.82,9.78l7-8.95h-4.57l-8.18,10.72V.83h-3.74V23.05h3.74V17.13l3.28-4.22,6.44,10.14h4.48Z" fill="#fff"/><path d="M131.76.54c-5,0-8.31,3-8.31,10v2.84c0,7,3.35,10,8.31,10s8.34-3,8.34-10V10.52C140.1,3.53,136.74.54,131.76.54Zm4.6,12.82c0,4.8-1.64,6.73-4.6,6.73s-4.58-1.93-4.58-6.73V10.52c0-4.8,1.61-6.73,4.58-6.73s4.6,1.93,4.6,6.73Z" fill="#fff"/><path d="M113,16.8l-4.64-16h-3.45L100.32,16.7,96.91.83h-4l5.25,22.22h3.61L106.6,6.88l4.87,16.17h3.64L120.35.83h-4Z" fill="#fff"/><path d="M161.13,7.46c0-4.41-3.06-6.63-8.18-6.63h-7.57V23.05h3.73V14h4.32l4.28,9h4.13l-4.74-9.63A5.8,5.8,0,0,0,161.13,7.46Zm-8.44,3.35h-3.58V4.08h3.58c3.16,0,4.7.87,4.7,3.38s-1.54,3.35-4.7,3.35Z" fill="#fff"/><path d="M64.88,14h5.34l1.16-3.22h-6.5V4.09h8.78L74.76.84H61.14V23.06h3.74Z" fill="#fff"/><path d="M80.85,23.05h3.74v-19H91V.83H77.06L76,4.08h4.88Z" fill="#fff"/><path d="M9,3.79c2.45,0,3.9,1.22,4.48,3.93h3.61C16.37,2.89,13.44.54,9,.54c-5,0-8.31,3-8.31,10v2.84c0,7,3.35,10,8.31,10,4.42,0,7.32-2.19,8.06-7.18H13.5c-.58,2.7-1.93,3.93-4.48,3.93-3,0-4.57-2-4.57-6.73V10.52C4.45,5.72,6.07,3.79,9,3.79Z" fill="#fff"/><path d="M36.8,7.46c0-4.41-3.06-6.63-8.18-6.63H21.05V23.05h3.74V14h4.32l4.28,9h4.12l-4.73-9.63A5.79,5.79,0,0,0,36.8,7.46Zm-8.43,3.35H24.79V4.08h3.58c3.15,0,4.7.87,4.7,3.38s-1.55,3.35-4.7,3.35Z" fill="#fff"/><path d="M54.5,23h4L50.74.82H47.19L39.46,23h4L45,18.43h8ZM46,15.21l3-9,3,9Z" fill="#fff"/></svg>