<svg xmlns="http://www.w3.org/2000/svg" width="147.368" height="18.307" viewBox="0 0 147.368 18.307"><g transform="translate(-1310 -7515)"><path d="M475.563,758.215l5.637-7.188h-3.672l-6.568,8.61v-8.61h-3v17.841h3V764.11l2.638-3.387,5.172,8.145h3.594Z" transform="translate(975.004 6764.207)"/><path d="M434.673,750.756c-3.982,0-6.671,2.4-6.671,8.016v2.275c0,5.611,2.689,8.016,6.671,8.016,4.008,0,6.7-2.4,6.7-8.016v-2.275C441.37,753.161,438.681,750.756,434.673,750.756Zm3.7,10.291c0,3.853-1.319,5.4-3.7,5.4S431,764.9,431,761.047v-2.275c0-3.853,1.293-5.4,3.672-5.4s3.7,1.551,3.7,5.4Z" transform="translate(980.522 6764.244)"/><path d="M415.646,763.852l-3.724-12.825h-2.767l-3.646,12.748-2.741-12.748h-3.206l4.215,17.841h2.9l3.879-12.98,3.9,12.98h2.922l4.215-17.841h-3.206Z" transform="translate(984.449 6764.207)"/><path d="M461.075,756.353c0-3.542-2.456-5.327-6.568-5.327h-6.076v17.841h3v-7.24H454.9l3.439,7.24h3.31l-3.8-7.731A4.659,4.659,0,0,0,461.075,756.353Zm-6.775,2.689h-2.87v-5.4h2.87c2.534,0,3.775.7,3.775,2.715S456.835,759.042,454.3,759.042Z" transform="translate(977.701 6764.207)"/><path d="M372.971,761.618h4.288l.929-2.586h-5.217v-5.388h7.05l.889-2.612H369.971v17.841h3Z" transform="translate(988.535 6764.206)"/><path d="M387.7,768.868h3v-15.23h5.12v-2.612H384.655l-.879,2.612H387.7Z" transform="translate(986.629 6764.207)"/><path d="M320.365,753.368c1.965,0,3.129.983,3.594,3.155h2.9c-.595-3.878-2.948-5.766-6.49-5.766-3.982,0-6.671,2.4-6.671,8.016v2.275c0,5.611,2.689,8.016,6.671,8.016,3.542,0,5.87-1.758,6.464-5.766h-2.87c-.465,2.172-1.551,3.154-3.594,3.154-2.379,0-3.672-1.6-3.672-5.4v-2.275C316.693,754.919,317.986,753.368,320.365,753.368Z" transform="translate(996.306 6764.244)"/><path d="M345.279,756.353c0-3.542-2.456-5.327-6.568-5.327h-6.077v17.841h3v-7.24H339.1l3.439,7.24h3.31l-3.8-7.731A4.659,4.659,0,0,0,345.279,756.353Zm-6.775,2.689h-2.87v-5.4h2.87c2.534,0,3.775.7,3.775,2.715S341.039,759.042,338.5,759.042Z" transform="translate(993.69 6764.207)"/><path d="M361.854,768.857h3.18l-6.206-17.841h-2.844l-6.206,17.841h3.206l1.216-3.7h6.438Zm-6.826-6.283,2.379-7.214,2.379,7.214Z" transform="translate(991.323 6764.208)"/></g></svg>