<svg xmlns="http://www.w3.org/2000/svg" width="142.042" height="18.307" viewBox="0 0 142.042 18.307"><g transform="translate(-1030 -7515)"><rect width="2.999" height="17.841" transform="translate(1152.055 7515.233)"/><path d="M323.533,1002.763h3.542c-.207,2.818-1.345,4.163-3.62,4.163-2.379,0-3.672-1.551-3.672-5.4v-2.275c0-3.853,1.293-5.4,3.672-5.4,2.017,0,3.155,1.086,3.594,3.155h2.9c-.569-3.749-2.87-5.766-6.49-5.766-3.982,0-6.671,2.4-6.671,8.145v2.146c0,5.611,2.689,8.016,6.671,8.016,4.008,0,6.568-2.4,6.568-8.016v-1.37h-6.49Z" transform="translate(713.216 6523.769)"/><path d="M422.542,1002.1h3.465l3.439,7.24h3.31l-3.8-7.731a4.659,4.659,0,0,0,3.232-4.783c0-3.542-2.457-5.327-6.568-5.327h-6.077v17.841h3Zm0-7.99h2.87c2.534,0,3.775.7,3.775,2.715s-1.241,2.689-3.775,2.689h-2.87Z" transform="translate(699.027 6523.731)"/><path d="M474.084,999.092c-2.482-.543-3.827-1.215-3.827-2.922,0-1.5,1.086-2.327,2.922-2.327a4.16,4.16,0,0,1,3.853,1.939l2.275-1.629c-1.267-1.965-3.258-2.922-6.1-2.922-4.189,0-5.947,2.249-5.947,4.939,0,3.025,1.939,4.68,5.378,5.4,3.1.672,3.9,1.552,3.9,2.974,0,1.293-.776,2.379-3.232,2.379a4.777,4.777,0,0,1-4.163-1.939l-2.353,1.629c1.474,1.991,3.62,2.922,6.671,2.922,4.292,0,6.076-2.456,6.076-5.12C479.54,1001.212,477.678,999.867,474.084,999.092Z" transform="translate(692.502 6523.769)"/><path d="M390.855,999.092c-2.482-.543-3.827-1.215-3.827-2.922,0-1.5,1.086-2.327,2.922-2.327a4.16,4.16,0,0,1,3.853,1.939l2.276-1.629c-1.267-1.965-3.258-2.922-6.1-2.922-4.189,0-5.947,2.249-5.947,4.939,0,3.025,1.939,4.68,5.378,5.4,3.1.672,3.9,1.552,3.9,2.974,0,1.293-.776,2.379-3.232,2.379a4.777,4.777,0,0,1-4.163-1.939l-2.353,1.629c1.474,1.991,3.62,2.922,6.671,2.922,4.292,0,6.076-2.456,6.076-5.12C396.311,1001.212,394.449,999.867,390.855,999.092Z" transform="translate(703.995 6523.769)"/><path d="M362.618,991.5h-6.025v17.841h6.025c4.008,0,6.7-2.146,6.7-7.861v-2.12C369.315,993.647,366.626,991.5,362.618,991.5Zm3.7,9.981c0,3.672-1.138,5.275-3.7,5.275h-3.025V994.113h3.025c2.56,0,3.7,1.577,3.7,5.249Z" transform="translate(707.719 6523.731)"/><path d="M444.233,1004.559l-4.4-13.058h-3.284l6.335,17.842h2.741l6.335-17.842H448.68Z" transform="translate(696.678 6523.731)"/><path d="M349.707,996.828c0-3.542-2.456-5.327-6.568-5.327h-6.077v17.841h3v-7.24h3.465l3.439,7.24h3.31l-3.8-7.731A4.659,4.659,0,0,0,349.707,996.828Zm-6.775,2.689h-2.87v-5.4h2.87c2.534,0,3.775.7,3.775,2.715S345.467,999.517,342.933,999.517Z" transform="translate(710.416 6523.731)"/><path d="M406.085,994.125h7.049l.889-2.612H403.086v17.841h4.747l.915-2.586h-2.662v-5.353h4.484l.928-2.586h-5.412Z" transform="translate(701.299 6523.73)"/></g></svg>