<svg xmlns="http://www.w3.org/2000/svg" width="178" height="43" viewBox="0 0 178 43"><path d="M49.08,40.71l-1.53-4.55H46.4l2.21,6.22h1l2.21-6.22H50.63Z" fill="#fff"/><path d="M75.66,39.12a1.39,1.39,0,0,0,.9-1.35c0-1.07-.74-1.61-2.2-1.61h-2v6.22h2.2c1.61,0,2.2-.85,2.2-1.79A1.41,1.41,0,0,0,75.66,39.12ZM73.4,37.06h.88c1,0,1.24.29,1.24.77s-.32.87-1.1.87h-1Zm1.09,4.42H73.4V39.6h1c.92,0,1.36.28,1.36.94s-.39.94-1.23.94Z" fill="#fff"/><path d="M56.68,34.51H55.55l-.73,1.16h.93Z" fill="#fff"/><path d="M68,36.08c-1.38,0-2.32.84-2.32,2.79v.79c0,2,.94,2.8,2.32,2.8s2.33-.84,2.33-2.8v-.79C70.33,36.92,69.4,36.08,68,36.08Zm1.29,3.58c0,1.35-.46,1.89-1.29,1.89s-1.28-.54-1.28-1.89v-.79c0-1.34.45-1.88,1.28-1.88s1.29.54,1.29,1.88Z" fill="#fff"/><path d="M55.37,38.65l-1.25-2.49H52.91l1.94,3.62v2.6h1v-2.6l1.94-3.62H56.62Z" fill="#fff"/><path d="M63.94,38c0-1.24-.86-1.86-2.29-1.86H59.53v6.22h1V39.85h1.21L63,42.38h1.15l-1.32-2.7A1.63,1.63,0,0,0,63.94,38ZM61.58,39h-1V37.07h1c.88,0,1.31.24,1.31,1s-.43.93-1.31.93Z" fill="#fff"/><path d="M117.14,35.67h.93l.93-1.16h-1.14Z" fill="#fff"/><rect x="117.13" y="36.16" width="1.04" height="6.22" fill="#fff"/><path d="M113,36.16h-2.12v6.22h1V40.11H113c1.44,0,2.29-.72,2.29-2S114.38,36.16,113,36.16Zm-.11,3.05h-1V37.07h1c1,0,1.35.38,1.35,1.06s-.39,1.08-1.35,1.08Z" fill="#fff"/><path d="M130.56,39.86c0,1.19-.43,1.69-1.29,1.69s-1.28-.5-1.28-1.69v-3.7h-1v3.7c0,1.83.94,2.6,2.32,2.6s2.33-.76,2.33-2.6V36.17h-1Z" fill="#fff"/><path d="M124.94,38c0-1.24-.85-1.86-2.29-1.86h-2.11v6.22h1V39.85h1.21l1.2,2.53h1.15l-1.32-2.7A1.63,1.63,0,0,0,124.94,38Zm-2.36.93h-1V37.07h1c.89,0,1.32.24,1.32,1s-.43.93-1.32.93Z" fill="#fff"/><path d="M100.9,36.16H98.78v6.22h1V40.11h1.07c1.44,0,2.29-.72,2.29-2S102.34,36.16,100.9,36.16Zm-.11,3.05h-1V37.07h1c1,0,1.36.38,1.36,1.06s-.4,1.08-1.36,1.08Z" fill="#fff"/><path d="M80.19,36.16,78,42.38h1.12l.43-1.29h2.24l.43,1.29h1.1l-2.16-6.22Zm-.34,4,.83-2.52.83,2.52Z" fill="#fff"/><path d="M106.06,36.16l-2.16,6.22H105l.42-1.29h2.25l.42,1.29h1.11l-2.16-6.22Zm-.33,4,.83-2.52.83,2.52Z" fill="#fff"/><path d="M92.75,36.85v-.69H88.67v.91h2.75l-2.75,4.62v.69h4.17v-.9H90Z" fill="#fff"/><rect x="152.57" y="0.83" width="3.74" height="22.23" fill="#fff"/><path d="M8.94,14.91h4.41c-.26,3.51-1.68,5.18-4.51,5.18s-4.57-1.93-4.57-6.73V10.53c0-4.8,1.61-6.73,4.57-6.73,2.51,0,3.93,1.35,4.48,3.93h3.6C16.21,3.06,13.35.54,8.84.54c-5,0-8.31,3-8.31,10.15v2.67c0,7,3.35,10,8.31,10s8.18-3,8.18-10v-1.7H8.93Z" fill="#fff"/><path d="M114.6,14h4.32l4.28,9h4.12l-4.74-9.63a5.8,5.8,0,0,0,4-5.95c0-4.42-3.06-6.64-8.18-6.64h-7.57V23.05h3.73Zm0-10h3.57c3.16,0,4.7.87,4.7,3.39s-1.55,3.35-4.7,3.35H114.6Z" fill="#fff"/><path d="M170.67,10.33c-3.09-.67-4.77-1.51-4.77-3.64,0-1.87,1.36-2.9,3.64-2.9a5.17,5.17,0,0,1,4.8,2.42l2.84-2c-1.58-2.45-4.06-3.64-7.6-3.64-5.22,0-7.41,2.8-7.41,6.15,0,3.77,2.42,5.83,6.7,6.73,3.87.84,4.87,1.94,4.87,3.7,0,1.61-1,3-4,3a6,6,0,0,1-5.19-2.42l-2.93,2c1.84,2.48,4.51,3.64,8.31,3.64,5.35,0,7.57-3.06,7.57-6.38C177.47,13,175.15,11.3,170.67,10.33Z" fill="#fff"/><path d="M81.31,10.33c-3.09-.67-4.76-1.51-4.76-3.64,0-1.87,1.35-2.9,3.64-2.9A5.19,5.19,0,0,1,85,6.21l2.83-2C86.24,1.73,83.76.54,80.22.54c-5.22,0-7.41,2.8-7.41,6.15,0,3.77,2.42,5.83,6.7,6.73,3.87.84,4.87,1.94,4.87,3.7,0,1.61-1,3-4,3a6,6,0,0,1-5.19-2.42l-2.93,2c1.84,2.48,4.51,3.64,8.31,3.64,5.35,0,7.57-3.06,7.57-6.38C88.11,13,85.79,11.3,81.31,10.33Z" fill="#fff"/><path d="M50.78.83h-7.5V23.05h7.5c5,0,8.34-2.67,8.34-9.79V10.62C59.12,3.5,55.77.83,50.78.83Zm4.61,12.43c0,4.58-1.42,6.57-4.61,6.57H47V4.08h3.77c3.19,0,4.61,2,4.61,6.54Z" fill="#fff"/><path d="M138.69,17.1,133.21.83h-4.09L137,23.05h3.42L148.32.83h-4.09Z" fill="#fff"/><path d="M38.06,7.47C38.06,3.05,35,.83,29.87.83H22.31V23.05H26V14h4.32l4.28,9h4.13L34,13.42A5.8,5.8,0,0,0,38.06,7.47Zm-8.44,3.35H26V4.08h3.58c3.15,0,4.7.87,4.7,3.39s-1.55,3.35-4.7,3.35Z" fill="#fff"/><path d="M96.93,4.1h8.78l1.1-3.26H93.19V23.07H99.1l1.14-3.22H96.93V13.18h5.58L103.67,10H96.93Z" fill="#fff"/></svg>