<svg xmlns="http://www.w3.org/2000/svg" width="134" height="148" viewBox="0 0 134 148"><path d="M106.82,31.38c.52,3.77,6.23,8.85,7.78,8.73,1,0,1.43-4.92,1.43-8.73,0-2.19.12-3.89-1-4.29-1.82,3.69-6.62,4.45-8.17,4.29Zm.32-1.67c4.12,0,7.9-3.29,7.9-6.19a2.42,2.42,0,0,0-2.27-2.66,1.75,1.75,0,0,1,.4,1.27c0,2.18-3.33,4.6-7,4.6a1.52,1.52,0,0,0-1.71,1.39c0,1.11,1.08,1.59,2.63,1.59Zm-.88-4.49a1.71,1.71,0,0,1-1.78-.87c-.36-.71-.24-1.86-.92-2.38a6.88,6.88,0,0,0,2,.2c1.79,0,3.49-1.23,4.8-1.23a1,1,0,0,1,1.15,1.11c0,1.74-3.53,3.17-5.2,3.17ZM17.48,56.34c1.35,0,1.07-8.25,3.25-8.25.52,0,.68.51.68,1.15,0,1.86-.92,4.6-.92,6.11,0,.75.2,1,.56,1,.95,0,2.62-9.09,4.25-9.09.51,0,.75.52.75,1,0,1.9-2.42,7.38-2.42,8.92,0,.24.08.44.28.44,1,0,3-4.29,3.61-6.43.36-1.11.83-1.71,1.27-1.71s.75.44.75,1.35c0,2.15-2,7.19-3.73,10.56-1.35,2.62-3.45,6.39-3.45,8.5a4.23,4.23,0,0,0,1.74,3.53c-2.54-.16-3.57-.4-4.52-2.38-4.25,8.45,7.82,7.62,3.69,15.12-.75-1.35-6.71-2.74-6.71-10.6,0-6.79,6-10.76,6-13.57a1.8,1.8,0,0,0-.72-1.47c-1.31-1.11-1.35-2-2.38-2-.75,0-1.66,1.75-.71,3.3a2.58,2.58,0,0,1,.59,1.31c0,1.11-1.74,4.08-3,4.08s-2.19-3-2.19-8c0-4.37,1-8.77,2.23-8.77.35,0,.47.23.47.55,0,.52-.16,1.55-.16,3.3s.44,2,.8,2Zm60.8-39c.63,0,.75,1.55.87,2.46.08.47.16.51.36.51.48,0,1.23-1.82,1.75-1.82.75,0,2.78,2.1,6.15,2.1a9,9,0,0,0,9.33-9.32c0-5.76-4-9.14-9.65-9.14-2.66,0-4.6,1.31-5.63,1.31-.64,0-1.59-1.54-2.07-1.54-.2,0-.4.39-.4,1.07,0,.43,0,1.83-.47,1.83-1,0-4.64-2.75-4.64-1.75s2.46,3.69,2.46,4.4-2.43,1.39-2.43,1.87c0,.87,2.58,1,2.58,2.14s-2.7,2-2.7,2.82c0,.68,2.7.2,2.7,1s-2,3.61-2,4.41c0,.2,0,.2.2.2.75,0,3-2.58,3.57-2.58ZM27.36,76a1.53,1.53,0,0,1,1.35-1.63,1.48,1.48,0,0,1,1.66,1.35A1.53,1.53,0,0,1,29,77.38,1.58,1.58,0,0,1,27.36,76ZM23,77.22a2.59,2.59,0,0,0,2.86,2.22,3,3,0,0,0,1.31-.4A2.41,2.41,0,0,0,29.9,81a2.51,2.51,0,0,0,2.34-2.82,2,2,0,0,0-.24-.91l.28,0A2.59,2.59,0,0,0,31.8,72a2.81,2.81,0,0,0-1.26.55,2.65,2.65,0,0,0-2.86-2,2.6,2.6,0,0,0-2.31,2.89,2.28,2.28,0,0,0,.2.8l-.27,0A2.68,2.68,0,0,0,23,77.22ZM111.38,4.43a1,1,0,1,0,1-1,1,1,0,0,0-1,1ZM89.24,42.05a1.67,1.67,0,1,0,1.66-1.66,1.67,1.67,0,0,0-1.66,1.66Zm.11,5a1.87,1.87,0,1,0,1.87-1.86,1.87,1.87,0,0,0-1.87,1.86Zm-5.71,3.38a2.74,2.74,0,1,0,2.74-2.74,2.74,2.74,0,0,0-2.74,2.74Zm1.47-5.6a1.59,1.59,0,1,0,1.58-1.59,1.59,1.59,0,0,0-1.58,1.59ZM79.91,48a1.59,1.59,0,1,0,1.59-1.59A1.59,1.59,0,0,0,79.91,48ZM84,38.72a2.54,2.54,0,1,0,2.54-2.54A2.56,2.56,0,0,0,84,38.72Zm3-4.88a1.51,1.51,0,1,0,1.51-1.51A1.52,1.52,0,0,0,87,33.84Zm-7.18,3.81a1.51,1.51,0,1,0,1.51-1.51,1.51,1.51,0,0,0-1.51,1.51Zm-.2,5.16A2.42,2.42,0,1,0,82,40.39a2.4,2.4,0,0,0-2.42,2.42Zm-5,2.54a2.26,2.26,0,1,0,2.26-2.26,2.28,2.28,0,0,0-2.26,2.26Zm1.35-5.6a1.59,1.59,0,1,0,1.59-1.59,1.59,1.59,0,0,0-1.59,1.59ZM70.66,98.26a1.59,1.59,0,1,0,1.59-1.59,1.59,1.59,0,0,0-1.59,1.59ZM28,32.49a1.59,1.59,0,1,0,1.58-1.59A1.59,1.59,0,0,0,28,32.49Zm-2.07-3.57a1.59,1.59,0,1,0,1.59-1.59,1.59,1.59,0,0,0-1.59,1.59ZM27.6,68c1.66,0,3-1.23,3-4V60a6.93,6.93,0,0,1,1.15-4.52A7.64,7.64,0,0,0,31.69,57c0,3.42,1.9,5.76,1.9,9.06,0,1.22-.36,1.9-1.31,1.9s-.83-.83-1-.83-.4.51-.4,1.07a2.15,2.15,0,0,0,2.27,2.14,2.72,2.72,0,0,0,2.57-2.78c0-3.57-2.77-7.54-2.77-11.35a8.84,8.84,0,0,1,.79-3.65c0,7.9,6.71,13.65,6.71,16.95A1.33,1.33,0,0,1,39,70.87a1.3,1.3,0,0,1-1.35-1.27c0-.28,0-.36-.16-.36a2,2,0,0,0-1,1.83,3,3,0,0,0,3,2.89,3.51,3.51,0,0,0,3.5-3.61c0-4.17-8.14-10.48-8.14-17.23a9.38,9.38,0,0,1,1-4.44c-5.24,3.37-6.87,7.86-6.87,11.79,0,3.41-.11,5.12-1.86,5.12-.91,0-1.15-.84-1.47-.84s-.36.72-.36.92A2.18,2.18,0,0,0,27.6,68ZM96.38,28.32c1.75,0,3.06-.79,3.06-1.27,0-.16-.24-.28-.76-.28a22.39,22.39,0,0,1-3.49-.35c-1.67-.28-2.94-.92-3.42-.92-.16,0-.23.08-.23.2,0,1,1.9,2.62,4.84,2.62Zm-8.65-5c.51-.32,2.73.2,5.63-1.23a2.13,2.13,0,0,1,1-.28c1.39,0,1,1.59,2.31,1.59,1,0,2.26-.83,3-.83,1.19,0,2.9,3.73,2.9,5.47,0,2-3,3.26-6.67,3.26-5.28,0-8.45-4.61-8.45-7.58a.42.42,0,0,1,.24-.4ZM28.43,82.93c-1.31.32-3.41,2.38-3.41,5.64,0,3.89,4.16,9.88,11,9.88,5.8,0,7.22-4,7.22-6.71,0-6-3.69-10.2-8.49-10.2a4.79,4.79,0,0,0-5,4.73,6.56,6.56,0,0,0,6.71,6.54,3.34,3.34,0,0,0,3.53-3.41c0-1.78-1.63-4.24-4-4.24a1.17,1.17,0,0,0-1.23,1.23c0,1,1.31,1.9,2.94,1.9a2.09,2.09,0,0,0,.87-.16,1,1,0,0,1,.12.48c0,.91-.87,1.47-2.22,1.47a3.88,3.88,0,0,1-4-3.89c0-1.43,1.23-2.46,3-2.46,3.53,0,5.63,3.13,5.63,6.26,0,2.82-1.55,4.45-4.72,4.45-6.35,0-9.45-5.71-8.06-11.51Zm-4-43.14c-.91.24-2.82,1.35-2.82,3.33a2.35,2.35,0,0,0,2.5,2.35,2.57,2.57,0,0,0,1.55-.4,4.62,4.62,0,0,1-1.51-3.45,5.32,5.32,0,0,1,.28-1.83Zm-9.72.56a2.93,2.93,0,0,0,0,.59c0,1.87,1,2.9,2.3,2.9a4.27,4.27,0,0,0,3.17-1.91,8.16,8.16,0,0,1-1.42.12,4.75,4.75,0,0,1-4-1.7Zm-1.39,3.53c0,3,.91,4.44,2.54,4.44,1.27,0,3-.91,5-2.65a18,18,0,0,1-3.81.59c-1.43,0-2.54-.55-3.73-2.38Zm60.4,62.31a18.22,18.22,0,0,0,2.39-.16c.59,0,.63.36.63.6,0,.87-1.94,1.94-5.4,1.94a3.51,3.51,0,0,1-3.61-2.26,15.63,15.63,0,0,1-8,2.42c-8.14,0-10.21-3.53-12.74-4.68-1.95-.87-4.93.83-9.09-3.81a9.88,9.88,0,0,0,1.9.16c3.65,0,5.6-1.79,5.6-4.65a10.54,10.54,0,0,0-.08-1.11,7.87,7.87,0,0,1,4.24,5.72c.08.39,1.71.75,2.74.75a3.24,3.24,0,0,0,3.54-2.94c4.76-.39,8-3.21,8.65-6.78a9.37,9.37,0,0,1,4.12,2.89,7.43,7.43,0,0,1,2.39-.35,15.45,15.45,0,0,1,4.4.75c.08-.51.16-1.15,1-1.15,1.19,0,.87,1.31,1.27,2.06.2.4,1.19.64,1.19,1.43a1,1,0,0,1-1,1,1.73,1.73,0,0,1-.48-.07c-.8.28-.84,6-4.17,6-2.46,0-4.72-2-5.71-4.57a1.72,1.72,0,0,0-1.43-1.23c-.64,0-1,.13-1.75,1a13.78,13.78,0,0,1-10.12,4.36c-1.35,0-2.42-.12-2.7-.12s-.16,0-.16.08c0,.28,1.35,1.35,4.29,1.35,7,0,8.69-3.93,9.8-3.93a.91.91,0,0,1,.91.64,7.77,7.77,0,0,0,7.39,4.68ZM51.21,26.42c2.62,0,3.81,2.26,3.81,4.8,0,1.11-.31,2.74-.83,2.74s-.44-.92-.52-1.75c-.08-1.07-.27-1.31-.63-1.31-.68,0-1.11,1.59-1.11,3.06,0,.91.16,1.94.87,1.94a1.46,1.46,0,0,0,1-.43,3.54,3.54,0,0,1-3.41,3.41c-3.49,0-4.8-4.09-5.2-6.47-2.1,2.22-4,3.85-7.54,3.85a4.46,4.46,0,0,1-4.72-4.65c0-.67.24-2.42,1.07-2.42,1,0,.11,3.26,2.06,3.26.48,0,1.35-.4,1.83-1.71a7.27,7.27,0,0,0,.43-2.34c0-1.07-.23-1.75-1-1.75a3.08,3.08,0,0,0-1.78.8,6,6,0,0,1,5.79-4.33c3.14,0,4.8,2.78,4.8,5.88A7.59,7.59,0,0,1,46,30.34c1.35-2.22,3.22-3.92,5.24-3.92Zm-10-23.66c0-.24-1.19-.48-2.82-.48-2.58,0-2.22,2.15-4.2,2.15S32.68,2.2,30.06,2.2c-1.59,0-3.06.28-3.06.64s1.87.28,1.87,1.59-4,1.78-4,2.62c0,.27.32.39.71.39.88,0,2.27-.39,3.26-.39.55,0,1.07.12,1.07.63,0,1-2.14,2.78-2.14,3.58,0,.23.2.31.39.31.8,0,2.15-2,3.42-2,2.1,0,.71,4.48,1.86,4.48s.67-4.4,2.38-4.4c1.39,0,2.43,3,3.38,3a.45.45,0,0,0,.43-.47c0-.84-1.19-2.54-1.19-3.66a1,1,0,0,1,1.11-1c.92,0,2.15.56,2.82.56.24,0,.48-.08.48-.36,0-1-3.53-2-3.53-3.21s1.94-1.23,1.94-1.79ZM97.81,80.91c-.83,0-5.44,6.15-8.41,6.15-.72,0-1.32-1.35-1.32-2.38,0-.56.36-1,1.63-1.23,6.83-1.55,5.32-6.67,11.15-6.67,3.22,0,6.79,2.19,6.79,7.11,0,5.23-7.46,11.75-8.57,11.75-.91,0-1.91-1.32-1.91-2.19,0-.28.12-.64.92-1,3.81-1.51,6-5,6-6.79a.7.7,0,0,0-.72-.79c-.67,0-3.57,6.58-6.78,6.58-2.23,0-4.49-2-4.49-3,0-1.59,6.43-4.53,6.43-6.75,0-.83-.39-.87-.71-.87Zm4.28-2.46c-.55,0-1.15.44-1.15,1.5a2.53,2.53,0,0,0,1.43,2.19,2.47,2.47,0,0,0,1.15.32c1.15,0,2.07-.32,2.07-1.28,0-1.23-1.79-2.73-3.5-2.73ZM50.58,6.81c0,.71,2.5,2.26,3.65,2.26.67,0,.87-.91.87-1.87C55.1,6,54.59,6,53.55,6c-1.3,0-3,.35-3,.83Zm4.13,7.86c0-2.39-6.51-6.79-6.51-8.58a.34.34,0,0,1,0-.19c.47-1.31,5.87-2.23,5.87-3.3,0-.52-1-.52-1.43-.52-3.69,0-9.09,1.35-9.09,2.67S48.44,9.39,48.44,11c0,.43-.28.59-.72.59-1.35,0-4.29-1.63-5.67-1.63-.64,0-.88.44-.88,1.08,0,1.9,2.26,5.51,2.26,6.58,0,.12,0,.28-.19.28-.72,0-4.09-4-5.28-4-.44,0-.48.6-.48,1.47v1.35c0,.91,0,1.47-.48,1.47-1,0-1.5-2.9-2.5-2.9s-1.23,5.16-2.22,5.16c-1.15,0-.16-5.67-1.27-5.67s-2.62,3.77-3.49,3.77c-.32,0-.4-.32-.4-.6,0-1.15.68-3,.68-4.13,0-.55-.16-.87-.64-.87-1.23,0-3.93,2-5,2-.16,0-.36-.08-.36-.24,0-1,4.33-4,4.33-5.32s-6-.44-6-1.95c0-1.27,4.25-2.58,4.25-3.89,0-1.15-5-1.66-7-1.66-2.35,0-3.62.27-3.62,1,0,1,5.32,1.35,5.32,2.26s-5.51,3.22-5.51,4.57c0,1.19,7.78.07,7.78,1.31s-6.79,7.18-6.79,9.12c0,.44.32.64.75.64,2.07,0,7.43-3.93,8.89-3.93.52,0,.56.63.56,1.19,0,1-.36,2.62-.36,3.77,0,.91.24,1.55,1,1.55,1.47,0,2.82-2.5,3.81-2.5,1.27,0,.52,7.34,2.43,7.34,1.62,0,2.3-7.94,3.33-7.94s1.86,2.3,2.82,2.3c1.19,0,.63-4,1.9-4s5.36,4.76,7.15,4.76c.55,0,.75-.44.75-1,0-2.11-2.94-6.87-2.94-8.38,0-.39.12-.51.56-.51,1.55,0,6.07,2.14,8.21,2.14.72,0,1.16-.4,1.16-.91Zm54.17,45.68a23.77,23.77,0,0,1,2.74-5.52c-1.31-.67-4.76-2.1-4.76-4.44,0-2.74,3.41-4.88,4.12-4.88.32,0,.4.28.4.79,0,1.43-.67,3.73-.67,5s.71,2.18,1.34,2.18,2.55-2.38,2.55-4.72a5.36,5.36,0,0,0-4.84-5.48c-1.08,0-3,1.75-7.59,1.75C93.64,45,91.7,36.54,91.7,32.85c0-.16,0-.2.07-.2a6.11,6.11,0,0,0,3.74,1c1.39,0,2.66-.36,4.68-.36,4.76,0,6.87,3.3,9.81,7.5,1.78,1.11,6,2.9,6,7.94,0,4.44-4.73,6.91-5.88,11.67,1.83-.2,2.9-3.46,4.77-3.46,1,0,1.38.76,1.38,2a8.62,8.62,0,0,1-2.89,6,2.56,2.56,0,0,0,0-.59c0-1.11-.44-2.7-1.71-2.7-2,0-2.62,2.14-3.73,3.93-1.15-4-2.7-7.7-5.48-9.92s-7.66-1-7.66-5.16c0-1.12.72-2.7.72-4a1.85,1.85,0,0,0-.32-1.15c3.81,1.43,2.46,4,4.8,6.58,1.47,1.67,5.52,3.26,7.86,10.12A7.21,7.21,0,0,0,108,61c0-5.87-7.78-11.63-8.45-14,4.52.52,5.31,1.63,7.46,7.58.43,1.24,1.86,4.29,1.86,5.8ZM23.63,28A7.65,7.65,0,0,0,24,25.7c0-1.91-.88-4.8-3.58-4.8a2.64,2.64,0,0,0-2.65,2.7c0,3.13,3.13,4.4,5.87,4.4ZM20.25,38a3.26,3.26,0,0,1-2.73-3.09c0-.79.59-1.79,1-1.79.16,0,.24.12.28.4a4.47,4.47,0,0,0,2.7,3.61c.11.08.19.12.19.2,0,.28-.75.67-1.47.67Zm4.69-3.72c0,.55-.32,1.27-1,1.27-1.39,0-2.5-2.11-2.5-3.3,0-.75.43-.83,1-.83a.93.93,0,0,1,.59.16c.36.19.36,1,.8,1.58.23.4,1,.84,1,1.12Zm-1.39-4.17a5.84,5.84,0,0,0-.87,0,8.24,8.24,0,0,0-4.61,1.27c-3.49,2.26-2.94,5.83-3.49,6.74a.81.81,0,0,0-.12.44.84.84,0,0,0,.75.75c.32,0,.52-.07.68-.07.95,0,2,.67,3.57.67a7.64,7.64,0,0,0,3.34-.95,8.3,8.3,0,0,0,4-5.56c0-.75-.6-.63-1.12-1.35s-.28-1.15-.63-1.63a3.71,3.71,0,0,0-1.47-.27Zm4.21,6.39A7.47,7.47,0,0,0,26,41.06C26,43.2,27.28,45,29.3,45s2.86-1.67,2.86-3.37c0-2.66-2.42-4.53-4.4-5.12Zm-8.5-7.62a4.77,4.77,0,0,1-2.58.87,3,3,0,0,1-3-3.06,3.33,3.33,0,0,1,2.1-3.13,3.71,3.71,0,0,0,0,.67,4.62,4.62,0,0,0,3.57,4.65ZM89.87,52a1.53,1.53,0,0,1,3.06,0,1.53,1.53,0,1,1-3.06,0Zm1,45.65c.2,0,.44.12.44.83a3.51,3.51,0,0,1-1.82,2.94,7.76,7.76,0,0,1-4.33,1.27,9.59,9.59,0,0,0,.55-2.9,7.48,7.48,0,0,0-.08-.91h.52a9,9,0,0,0,4.72-1.23Zm.32-3.93a1.45,1.45,0,0,0,.39-1.15v-.92c0-1.15-1.74-1.82-4.12-1.82-2.9,0-4.45,1.31-4.45,1.86v1.83c0,.75,1.75,1.51,3.89,1.51a6.67,6.67,0,0,0,4.29-1.31Zm2.06.44a11.72,11.72,0,0,1-7.46,2.58A9.73,9.73,0,0,1,82.41,96c-.4,0-.83.4-1.27.91A8.92,8.92,0,0,0,79,102.38a3.27,3.27,0,0,0,3.54,3.18c7.42,0,13-4.65,13-8.42,0-2.14-1.28-3-2.19-3Zm1.39-33.38c0,1,.32,2.14,1.31,2.14.84,0,1.55-1.27,1.55-2.66,0-1.59-.28-2.82-.28-3.45,0-.28.12-.4.28-.4.6,0,1.15,1.67,1.79,1.67s1.78-1.31,2.22-1.31c.12,0,.16.16.16.2,0,.59-.92,1.9-.92,2.42s2.31.51,2.31.91c0,.6-2.43.6-3.57,1.11s-1.79,1.07-1.79,1.87.79,1,1.9,1c2.66,0,4.53-1.43,5.12-1.43a.19.19,0,0,1,.2.2c0,.4-1.35,1.71-1.35,2.3s2.46,1.47,2.42,1.87c0,.11-.19.15-.47.15-.44,0-1.11-.11-1.63-.11-.32,0-.6,0-.71.19-.28.32.08,2.43-.48,2.43s-1.87-4.69-4.92-4.69c-.44,0-.76.36-.76,1,0,1.58,1.55,3.41,3,4.28.67.44,1.79.87,1.79,1.11,0,.48-2.54,0-2.54.83s.31,1.79.31,2.43c0,.2,0,.43-.27.43-.48,0-1.63-2.18-2.19-2.18s-1.5,1.31-1.94,1.31A.22.22,0,0,1,95,74c0-.91,1.47-3,1.47-5,0-1-.12-3-1.27-3-1,0-2,1.5-2.5,3-.28.88-.08,4.25-.72,4.25S91.57,71,90.78,71c-.59,0-1.86,1.07-2.3,1.07-.08,0-.16,0-.16-.12,0-.48,1.15-2,1.15-2.34,0-.6-2.62-.68-2.62-1.15,0-.28,1-.48,2-.64,2-.36,5-1.82,5-3.89,0-2.3-2.23-3.29-3.69-4.25-.75-.47-1.59-.87-1.59-1.19s1-.32,1.35-.32c.59,0,1.19,0,1.19-.51S91,56.62,91,56.06c0-.39,0-.71.2-.71.59,0,1.43,1.94,1.82,1.94.64,0,1.51-1.58,2.11-1.58.2,0,.28.11.28.47,0,1.47-.76,3.14-.76,4.57ZM75.74,49.12c.44,3.37,5,1.66,5,5.75,0,.6-.16,1.47-.16,2.22s.08,1.63.76,1.63.83-.47.83-1.11S82,56.18,82,55.75A1.54,1.54,0,0,1,83.56,54c1.51,0,2.66,1.55,4.92,1.55-.51,2.54-5.75,1.86-5.75,4.64,0,1.39,1.38,1.71,2.3,1.71s1.11-.12,1.11-.84c0-.39-.08-.83-.08-1.11a.32.32,0,0,1,.32-.32c.87,0,5.16,3.26,5.16,4.25S87,65.75,85.7,65.75a.42.42,0,0,1-.47-.44c0-.28.67-1.11.67-1.59s-.59-.59-2.18-.59c-.76,0-1.31.08-1.31.67,0,1.07,1.74,2.38,1.74,3.38,0,.79-.47,1.27-1.74,1.27-1.07,0-2.7-.84-2.7-2.23,0-1.11,1.15-2.22,1.15-2.89a.56.56,0,0,0-.63-.52c-1.48,0-1.87,3.89-7.07,4.33a4,4,0,0,0,1.55-3.3c0-.83-.2-1.51-.2-2.42,0-1.19.55-1.79,1.35-1.79,1.47,0,2.18,2.07,3.13,2.07a1.16,1.16,0,0,0,1.08-1.19c0-3-5.8-2.58-5.8-6.83a9.86,9.86,0,0,1,1.47-4.56Zm7.54,25.8a1,1,0,0,0,1,1,1.1,1.1,0,0,0,1-1.19c0-.84-.76-2-1.47-2-.32,0-.2.48-.28,1s-.24.88-.24,1.2Zm-2.06-5.28c4.17.79,6.43,3.93,6.43,6.86a3.59,3.59,0,0,1-3.5,3.89,3.37,3.37,0,0,1-3.49-3.61c0-1.67,1.31-3.41,1.31-5.12a3.09,3.09,0,0,0-.75-2Zm-5.28,6.74a1.61,1.61,0,0,1,.52,1.2c0,.59-.28,1.23-.28,1.9a1.74,1.74,0,0,0,1.75,1.78,1.85,1.85,0,0,0,1.86-1.9c0-1.51-1.55-3-3.85-3Zm13.14-2.54a2.45,2.45,0,0,1,.39,1.27c0,1.12-.75,2.15-.75,3.3a2.37,2.37,0,0,0,2.5,2.38A2.75,2.75,0,0,0,94,77.93c0-2.1-1.91-3.89-4.88-4.09Zm-12.19-2.1c1.82.24,2.26.87,2.26,1.39,0,.87-.79,1.15-1.54,1.15-.56,0-1.19-.12-1.87-.12a3,3,0,0,0-2.46,1c.51.08,1.27.44,1.27,1.23,0,2.31-6.39.4-6.39,6.31,0,3.14,3.26,6.55,8.18,6.55,2.54,0,4.16-.83,4.16-1.78,0-.76-1.35-.24-1.35-.87,0-.28.48-.8.48-1.24,0-.19-.16-.55-.48-.55-.71,0-2.06,1.15-4.8,1.15-2.14,0-4.25-1.23-4.25-2.9,0-.36.16-.56.4-.56s.56.16.83.16.28-.16.28-.59,0-1.67.76-1.67,2.18,2.78,7.66,2.78c1.82,0,5.36-.36,6.66-1.55A10.31,10.31,0,0,1,76.1,91.78,11.19,11.19,0,0,1,64.71,80.35,11.69,11.69,0,0,1,76.46,68.76c1.74,0,3.21.6,3.21,1.35,0,1-2.58.4-2.78,1.63ZM48.16,31.1c0-.68-.16-.83-.32-.83-.4,0-.83.47-1.47,1.54.08,1.43.32,2.07.72,2.07s1.07-1.39,1.07-2.78Zm-5.44,1.63c.44,0,1-.48,2-1.63a10.07,10.07,0,0,0,.08-1.59c0-.79-.31-1.67-.79-1.67-1.19,0-1.79,3.18-1.79,4,0,.48.24.88.48.88Zm6.47,3.53c1,0,2.1-3.81,2.1-6.19,0-.52-.08-1.07-.31-1.07-.84,0-2.23,3.92-2.23,6.07,0,.83.2,1.19.44,1.19Zm-9.73-2.18c1.35,0,2.9-7.31,2.9-8.54,0-.32-.12-.55-.39-.55C40.74,25,39,31.93,39,33.48c0,.28.08.6.43.6Zm4.33,3c-1.71,0-1.78,2.07-1.78,6.23-1.27-2.73-3.38-5.67-5.84-5.67-1.67,0-2.3,1.11-2.3,3.05A7.29,7.29,0,0,0,34,42.05a1.51,1.51,0,0,1,1.63-.95c1.7,0,3.77,1.31,5.12,3.1a26.25,26.25,0,0,0-4.33-.56,4.93,4.93,0,0,0-2.1.36,5.27,5.27,0,0,0-2.7,4.8,8,8,0,0,0,.12,1.31c1.39-3.1,5.08-4.48,7.46-4.48a7.6,7.6,0,0,1,1.11.08c-1.23,1.11-1.51,3-1.59,4.36,0,.63-.28.68-.71.68,0,1.3,1,3.25,1,4.24a.84.84,0,0,1-.4.76c0,1.74,1.75,3,1.75,4.12a.94.94,0,0,1-.2.64c.12.71,2,1.94,2.26,2.46.4.83.68.91.87.91.68,0,1.75-.79,1.75-1.51a.92.92,0,0,0-.36-.63,5.86,5.86,0,0,1-1.46-2.54.79.79,0,0,1-.76-.56c-.16-.51-.24-2.38-.55-3.29-.52-.12-.76-.32-.76-1.39,0-.52.32-2.54.32-3.26a.56.56,0,0,1-.56-.63c0-1.27,1.27-2.26,1.63-3.89,2.26,1.67,2.82,3.37,2.82,4.88a10.28,10.28,0,0,1-.28,2.26c1.67-.83,4.17-2.06,4.17-4.56,0-1.47-.68-3.09-5.16-3.73a14,14,0,0,1,4.6-.79c2.54,0,4,.79,4.33,2.58A5,5,0,0,0,54,44.28c0-2-1.62-3.22-3.69-3.22-2.42,0-4.56,1.27-6.87,2.82,1-2.14,1.75-3.41,3-3.41a3.09,3.09,0,0,1,.6.08c-.48-1.75-2.27-3.46-3.22-3.46ZM18.47,12.36c0,.8-3,3.46-4.09,3.46-.4,0-.52-.48-.52-.91a3.52,3.52,0,0,1,.8-2.27,4.48,4.48,0,0,1,2.62-.71c.55,0,1.19.12,1.19.43Zm92.2,53.35c2,0,3.57,2.58,3.57,5.59a12.48,12.48,0,0,1-4.2,9.09c0-5.36-6.6-3.65-6.6-7.54a2.63,2.63,0,0,1,2.62-2.78,4,4,0,0,1,3,1.08A3.55,3.55,0,0,1,108,68.6a2.7,2.7,0,0,1,2.7-2.89ZM81.22,25.11a3,3,0,0,0-2.07-.8A3.21,3.21,0,0,0,76,26.65a3.65,3.65,0,0,1-.28-1.35,3.83,3.83,0,0,1,4.09-3.88c2.54,0,3.53,1.34,3.89,1.34s.79-.39,1.11-.39.44.67.44,1.15c0,1.59-.72,4.32-2.5,5.32a4.07,4.07,0,0,0-2-1.91.62.62,0,0,1-.4-.59,1.58,1.58,0,0,1,.88-1.23Zm-6,2.89a4.22,4.22,0,0,0,3.06,1.43c.43,0,1-.12,1.23-.12s.6.16.6.44a2.49,2.49,0,0,1-.88,1.55,4,4,0,0,0,1.55.28,4.67,4.67,0,0,0,4.84-5,5.26,5.26,0,0,1,.76,2.53c0,4.33-3.18,6-6.11,6a8.49,8.49,0,0,1-3.1-.64c-.75,0-.71,1.51-1.23,1.47-.92-.16-1.75-2.18-1.75-4.33a6.35,6.35,0,0,1,1-3.61ZM47.64,16.45c0,1.39,5,8.18,5.91,8.18s1.39-1.39,1.39-2.58a1.66,1.66,0,0,0-.23-.87c-.72-1-5.76-5-6.87-5a.21.21,0,0,0-.2.23Zm57.27-3.25c0-2.82-6.74-3.53-6.74-4.17s3.76-1.39,5.71-1.43c-3-3.81-7.22-3.41-7.22-4.09,0-.39,3.17-1.19,6.11-1.19,2.46,0,4.76.56,4.76,2.43,0,1-.83,2.1-.83,3.68a1.47,1.47,0,0,0,1.59,1.63c1.23,0,1.51-1.31,1.51-2.7,0-1.15-.2-2-.2-2.57A2.64,2.64,0,0,1,112.37,2c1.35,0,1.67.59,3.66.59a3,3,0,0,0-1.47,2.34c0,1.67,1.07,2.82,1.07,6.24,0,6.26-5.87,8.49-13.06,8.49a40.5,40.5,0,0,1-6.15-.48c-.32,0-.4-.12-.4-.31,0-.52,2.82-.8,2.82-3.34a19.54,19.54,0,0,0-.32-2.3.32.32,0,0,1,.32-.32c.6,0,1.78,2.3,4,2.3a1.88,1.88,0,0,0,2.06-2Zm6.71-4c0,3.53-2.58,6.23-7.22,7,.51,0,1,0,1.47,0,5.43,0,7.42-2.47,7.42-4.53a2.53,2.53,0,0,0-1.67-2.5ZM107.85,41.1c0-.83-2.1-.91-2.3-3.25,0-.36-.16-1-.6-1-.71,0-.16,2.19-1,2.19-1.83,0-2.42-3.57-3.1-3.57-.16,0-.36.12-.36.59s.08.72.08,1.23-.12.87-.59.87c-1.07,0-2-2.5-2.94-2.5a.36.36,0,0,0-.39.32c0,.48.79,1.35.79,1.78,0,1-2.58.44-2.58,1.24,0,.35.36.47.83.47.84,0,2.15-.35,2.82-.35.4,0,1,.08,1,.59S98.13,41,98.13,41.5c0,.24.24.35.43.35,1.07,0,3-1.86,4.33-1.86.24,0,.83.12.83.48s-1.35,1.42-1.35,2.18a.4.4,0,0,0,.36.44c.71,0,1.67-1.87,3-1.87.51,0,1.27.2,1.66.2s.44-.2.44-.32ZM79.43,10.82c0-.44-1.54-1.27-1.54-1.75,0-.08.07-.12.19-.12.44,0,1.19.16,1.79.16s.59-2.22,1-2.22S81.62,9,82.05,9s1.47-.59,1.87-.59c.08,0,.15,0,.15.11,0,.28-1,1.35-1,1.67s2.23.8,2.23,1.11S83,11.65,83,12s.84,1.39.84,1.74a.11.11,0,0,1-.12.12c-.32,0-1.55-.55-1.91-.55S80.7,15,80.34,15c-.11,0-.19-.16-.19-.36L80.07,13a.28.28,0,0,0-.28-.32c-.48,0-1.39,0-1.67,0s-.27,0-.27-.12c0-.31,1.58-1.42,1.58-1.7Zm7.74,7.54c-2.78,0-4.6-1.39-4.6-2.11a.55.55,0,0,1,.55-.59C84,15.66,85.9,17,86.54,17c.15,0,.27-.08.27-.32,0-.71-.67-1.9-.67-2.5,0-.16.12-.28.36-.28,1.07,0,2.66.44,3.49.44.28,0,.36-.16.36-.32,0-.87-2.58-2.58-2.58-3.09S91,9.75,91,9s-4.36-.24-4.36-1c0-.56.83-1.51.83-1.94,0-.2-.16-.28-.44-.28s-2.26.75-3.05.75c-.4,0-.88-.08-.88-.63,0-.92,1.55-1.91,4-1.91,3.93,0,6.27,2.7,6.27,7.23,0,5.71-4,7.14-6.15,7.14ZM60.3,87a1.84,1.84,0,0,1-.43,1.15A3,3,0,0,0,57.65,87c-4.1,0-2.55,5.91-6.91,5.91a21.3,21.3,0,0,1-2.66-.23c-.28,0-.44.12-.44.35,0,1,1.47,3.58,5.56,3.58s8-2.5,8-5.6a4.31,4.31,0,0,0-.35-1.63,1.15,1.15,0,0,1,.91-.4c.63,0,1,.72,1.59.72a1.09,1.09,0,0,0,1.11-1.11,1.19,1.19,0,0,0-.76-1.11,1.38,1.38,0,0,0,.56-1.07A1.26,1.26,0,0,0,63,85.08a1.12,1.12,0,0,0-.87.39c-.08-.71-.48-1.39-1.23-1.39a1,1,0,0,0-1,1.12c0,.63.43,1.15.43,1.82ZM49.62,88.53c-1.18,0-3-1.27-3-2a1,1,0,0,1,1-.92c1,0,2.78,1.23,2.78,2.27,0,.27-.2.63-.8.63ZM38.55,79.64c3.18.79,4.76,2.5,5.08,4.52s.72,3.54,1.47,4.33a6.87,6.87,0,0,0,4.64,2.1c1.43,0,2.59-.47,2.59-1.78s-1.95-4.65-4.81-4.65c-.27,0-.63,0-1,0a2,2,0,0,1-1.19-.35c-.64-.56-.83-3.54-2-5.32A5,5,0,0,0,38.59,76c-1.39,0-2.93.75-2.93,1.86,0,.68.35,1.15,2.89,1.79ZM58.48,74.8c0-1.79-3.69-1.83-3.69-4.53a6.19,6.19,0,0,1,1.31-3.06,4.31,4.31,0,0,0,3,3.82c3.53,1.3,4,3.29,4,5.39,0,3.57-2.5,8-8.93,8A9,9,0,0,1,45.3,76c0-1.07.28-2.26,1-2.26s.8.47,1.27,1c1.79,1.78,3.73,2.26,6.55,2.26,2.54,0,4.41-1,4.41-2.1Zm.15,2.86c-1.38.55-1.9.51-1.9,1.9,0,.51-.12,1.19-.12,1.55s.08.75.64.75c1.42,0,3.69-2.42,3.69-4.48,0-.56-.32-.8-.68-.8s-.67.64-1.63,1.08ZM46,57.61c0-2.54,6-3.89,6-7a5.2,5.2,0,0,0-.56-2.11c2.1,1.15,3.65,3.1,3.65,4.68,0,2.75-2.85,4-2.85,5.72,0,2,3,2.3,3,4.76,0,2-2.9,4.37-2.9,7a4,4,0,0,0,3.62,4,9.25,9.25,0,0,1-2,.28c-4,0-8.14-3.3-8.14-7.23A6.78,6.78,0,0,1,48,62.77a5.69,5.69,0,0,0,2.93,1.59c.64,0,.92-.32.92-.8,0-1.47-5.84-2.81-5.84-6Z" fill="#fff"/><path d="M54.16,142.52a5.24,5.24,0,0,0,4.57-2.8,28,28,0,0,1-1.58-7.23c-.44-7.25,2.35-14.07,5.41-14.26,2.24-.13,4,2,4.24,5.42.55,9-2.46,12.81-4,16.06a5.34,5.34,0,0,0,4.41,3.41,2.85,2.85,0,0,0,1.87-.68,7.36,7.36,0,0,1-.3-2.16c0-5.24,3.37-9.65,6.28-9.65,2.32,0,3.66,3.06,3.66,5.09,0,2.39-2,4.34-5,6.21a3.61,3.61,0,0,0,2.32.89c4.26,0,6.5-5.16,8.15-9.87.3-.9.83-2.17,1.87-2.17,1.8,0,2.55,11.81,5.53,11.81C92.91,142.59,94,140,94,138c0-1.5-.52-1.65-.52-3.82,0-2.39,1.27-4.41,3-4.41,1,0,1.43,1.05,1.43,2.32,0,4.79-3.45,13.69-8.53,13.69-3.82,0-3.52-6.59-4.86-6.59-1.5,0-3.6,6.67-11,6.67A4.72,4.72,0,0,1,70,144a8.58,8.58,0,0,1-5,1.73c-2.77,0-4-2.85-5.08-2.85-1.35,0-2.84,2.93-7.34,2.93-3.59,0-4.19-4.79-5.45-4.79s-2.85,4.79-4.72,4.79c-3.14,0-3.81-8.31-6.58-8.31-2.17,0-9,8.43-10.89,8.24a1.11,1.11,0,0,1-1-1.39,51.92,51.92,0,0,1,1.36-5.11c.6-2.27,1.16-4.77,1.47-5.57a2,2,0,0,1,1.8-1.31c.34,0,.44.66.55,1.18.37,1.85.9,3.74,1.5,3.74,1.05,0,4.52-6.66,6.53-6.66,2.47,0,2.77,10.47,6.14,10.47,1.12,0,1.95-1.35,2.69-3,.08-2.77.83-6.73,3.07-6.73,1.57,0,2.32,3.51,1.2,6.58,0,3.66,2.39,4.56,4,4.56Zm55.8-7c0-1.87-1.72-4.49-4.26-4.49-3.37,0-6.65,3.67-6.65,8.75,0,4.56,2.83,6.07,5.67,6.07,4.94,0,7.94-4,9.5-7.41.76,2.24,1.2,7.41,3.07,7.41.75,0,1.27-.38,2.17-2.4,2.24-5,4.41-10.77,7.41-10.77,1.12,0,.45,2,3.14,2a2.18,2.18,0,0,0,2.16-2.25c0-1.72-1.56-3.07-4-3.07-7,0-8.52,10.55-9.65,10.55-1.87,0-1.27-8.45-2.62-8.45-1.19,0-1.79,1.43-1.94,2.09-1,3.9-3.74,9.51-7.93,9.51-1,0-2.69-.38-2.69-1.35s6.58-1.19,6.58-6.21Zm-45.59-9.82c-.12-2.09-.63-3-1.75-3-1.49.09-2.18,4.77-1.88,9.7.2,3.21.68,3.7,1.12,3.67.83,0,2.8-5.79,2.51-10.42Zm-12.16-4.39a2.17,2.17,0,0,0-2.31-2,3,3,0,0,0-2.62,3.37,2.2,2.2,0,0,0,2.25,2.24c1.64,0,2.84-1.87,2.68-3.59Zm23.27,15.26c0-1.27-.68-2.32-1.5-2.32s-2.24.75-2.24,3.14a4.72,4.72,0,0,0,1,3.15,3.88,3.88,0,0,0,2.77-4ZM104.72,134c1.58,0,2,1.86,1.65,3a4.78,4.78,0,0,1-3.81,2.76c-.45-1.12-.68-5.75,2.16-5.75ZM1.84,135.19a31.74,31.74,0,0,1,1.35-10.47c.67-2.32,1.27-3.14,3.37-3.59,1.64-.3,1.49,1.42,1.12,3.44a40,40,0,0,0-.9,11.74c.29,5.39,2.77,7.48,5.46,7.48,4,.08,5.83-3.28,6.58-8.15.6-3.89.15-5.76-.23-7a29,29,0,0,1-1-3.29c-.3-2.84,1-4.18,2.17-4.56,1.35-.37,1.87.3,2.39,1.87.68,2.4.75,5.53.53,10-.3,6.13-3.37,13.54-11,13.39-6.58-.14-9.49-4.41-9.8-10.92Z" fill="#fff"/></svg>