<svg xmlns="http://www.w3.org/2000/svg" width="220" height="61" viewBox="0 0 220 61"><path d="M80,52.27h-4.7V47.94h4.79c2,0,3.46.5,3.46,2.08S82.09,52.27,80,52.27Zm.8-5.78H72.9V59h2.37V53.71h5.5c3.8,0,5.19-2,5.19-3.7C86,48,84,46.49,80.77,46.49Z" fill="#fff"/><path d="M110.42,52.27h4.7c2.12,0,3.56-.56,3.56-2.25s-1.51-2.08-3.46-2.08h-4.8Zm11.25,6.62H119l-3.57-5.06a.32.32,0,0,0-.22-.12h-4.79V59h-2.36V46.49h7.87c3.24,0,5.18,1.5,5.18,3.52,0,1.43-1,3-3.43,3.53Z" fill="#fff"/><path d="M92.11,53.85l3.1-5.5h.06l2.85,5.5Zm1.75-7.36L86.58,59h2.7l2-3.63h7.77L101,59h2.86l-7-12.49Z" fill="#fff"/><path d="M144.33,52.25l-4.81-.82c-1-.17-2-.52-2-1.58,0-1.89,2.42-2.19,3.85-2.19,1.91,0,4.07.61,4.18,2.54h2.14c-.09-1.37-.68-4-6.58-4-4.08,0-5.8,1.91-5.8,3.86,0,2.17,2.49,2.75,3.6,2.94l3.45.59c2.77.49,3.59.9,3.59,2.21,0,1.79-2.77,2.1-4.41,2.1-2.16,0-4.65-.66-4.65-2.92h-2.14a3.4,3.4,0,0,0,1.72,3.17c.75.5,2,1.2,5.09,1.2,2.89,0,6.6-.82,6.6-3.78C148.16,53.61,146.52,52.63,144.33,52.25Z" fill="#fff"/><rect x="127.2" y="46.42" width="2.24" height="2.24" fill="#fff"/><rect x="127.21" y="49.98" width="2.24" height="8.93" fill="#fff"/><polygon points="119.54 38.19 147.49 38.19 147.49 34.77 124.33 34.77 124.33 23.85 141.72 23.85 141.72 20.39 124.33 20.39 124.33 10.33 147.49 10.33 147.49 6.92 119.54 6.92 119.54 38.19" fill="#fff"/><polygon points="134.06 1.88 130.28 6.13 142.16 1.88 134.06 1.88" fill="#fff"/><polygon points="194.41 34.77 194.41 6.92 190.04 6.92 190.04 38.19 218.3 38.19 218.3 34.77 194.41 34.77" fill="#fff"/><path d="M161.16,26.18l7.49-14.93,7.58,14.93ZM165.6,6.92,149.71,38.19h5.37l4.07-8.09h19.06l4.1,8.09h5.32L171.72,6.92Z" fill="#fff"/><path d="M100.63,21.38H86V10.63h15.11c3.47,0,5.43,1.62,6.14,3.68a5.88,5.88,0,0,1-.61,4.54C105.41,20.94,103,21.38,100.63,21.38Zm3.74,3.74c7.16-1.92,7.86-7.25,7.82-9.15-.42-5.58-4.19-9-11-9H81.54V38.19H86V25.07H98.86l9.43,13.12H114S107.17,29.36,104.37,25.12Z" fill="#fff"/><path d="M54.4,36.94c-8.78,0-16-7-16-15.53a16.17,16.17,0,0,1,32.33,0C70.73,29.89,63.16,36.94,54.4,36.94Zm.15-35.31c-12.68,0-21.32,8.94-21.32,19.76,0,11.39,9.54,19.43,21.32,19.43S75.86,32.9,75.86,21.39C75.86,10.57,67.11,1.63,54.55,1.63Z" fill="#fff"/><polygon points="21.92 17.98 25.16 17.98 31.04 6.92 26.3 6.92 21.92 17.98" fill="#fff"/><polygon points="6.07 34.77 6.07 6.92 1.7 6.92 1.7 38.19 29.96 38.19 29.96 34.77 6.07 34.77" fill="#fff"/><path d="M214.5,8.31h.72c.68,0,.79.27.79.53s-.15.57-.82.57h-.69ZM214,7.86V11.4h.54V9.87h.62l.94,1.53h.6l-1-1.56a.92.92,0,0,0,.92-1c0-.78-.54-1-1.25-1Zm1.19-1.3a3.07,3.07,0,1,0,3.11,3.06A3.08,3.08,0,0,0,215.15,6.56Zm0,.51a2.48,2.48,0,0,1,2.49,2.55,2.5,2.5,0,1,1-5,0A2.49,2.49,0,0,1,215.15,7.07Z" fill="#fff"/></svg>