<svg xmlns="http://www.w3.org/2000/svg" width="212" height="72" viewBox="0 0 212 72"><path d="M81.83,61.25c-7.71-5-18.16-5.84-35-1.16-18,4.23-24,6.93-31.85,1.5-3-2.67-4.1-7-3.3-13.17,1.88-10.1,7-19.81,16-30.59,5-5.61,9.7-10.42,15.87-12.36,4.72-1.21,4.28,2.5,3.71,3a4.55,4.55,0,0,0-2.4.6,6.23,6.23,0,0,0-2.48,4.23c-.13,3.27,3.26,2.59,4.72.79,1.58-2,3.91-5.91,2.08-9.53a5.38,5.38,0,0,0-3.75-2.48c-5.64-.32-10.9,2.37-15.75,5.34A68.87,68.87,0,0,0,5.72,36.22C3,43,.45,52.63,4.21,60.49c2.9,5.46,8.93,8.35,16.12,7.75,5-.53,11.14-2.16,15.24-3.15s25.1-8.2,32,4.36a9.32,9.32,0,0,1,8-4.55c4.72-.43,11.52,1.37,16.47,5-1.65-2.48-6.33-6.13-10.23-8.65Z" fill="#fff" fill-rule="evenodd"/><path d="M48.94,19.1C45,16.52,37.12,21.44,30.8,29.89,25,37.47,22.52,46.28,25.24,50.35c4,4.8,11.54-2.17,14.73-5.91l.41-.43a46.41,46.41,0,0,0,5.47-7.83l1.56-2.57c.93-.17,2-.44,3.29-.8,0,.06-4.79,8.07-4.3,12,.15,1.21,0,5.65,4.36,7,5.77,1,10.38-3.5,14.44-7.48l1.08-1c-.1.39-.22.92-.22.92-1.69,5.88.58,7.11,2,7.56,4.3,1.25,9.44-5,9.46-5-.14,2-.53,3.6,1.55,4.91,2,.7,3.94-.34,5.45-1.35,5.43-3.82,9.8-9.85,13.34-15H95.61s-5.56,8-9.15,9.73c0,0-.66.33-1,.06s-.28-1.29,0-1.87L99.3,19.19H92.76s-.71,1.21-.77,1.29a3.4,3.4,0,0,1-.22-.3c-4.06-5.61-13.24,3-20.15,13a66.22,66.22,0,0,1-9.56,11.31s-5.2,4.77-7.43,1.34a6.6,6.6,0,0,1-.1-4.92c2.59-7.37,7-14.06,12.12-18.09,1.44-1.12,3-1.44,3.77-1a1.65,1.65,0,0,1,.39,2.25,3.69,3.69,0,0,0-2.9,1.12c-1.52,1.59-2,3.13-1.56,4.57,2.34,3.33,7-3.26,6.79-7.28a4.31,4.31,0,0,0-2-3.46,6.87,6.87,0,0,0-6,.05C62.88,20,59.3,23,57.22,25.27c-2.63,2.9-7.13,6.12-8.54,5.76.46-1.23,4.26-9,.26-11.93ZM80.49,30.61a87.8,87.8,0,0,1,5.88-7.27c3-2.67,4.25-1.5,4.35-.66-2.83,5.07-6.18,10.89-9.32,16.12,0,0-1,1.49-1,1.49a14.47,14.47,0,0,1-5.07,5.21,1.44,1.44,0,0,1-1.22-.13,1.28,1.28,0,0,1-.55-1.25c.14-1.63,1.8-6.61,6.92-13.51Zm-35.6,3a2.2,2.2,0,0,1-.08.23S42,38.53,42,38.53c-1.71,2.29-3.86,5.17-6.54,6.56-.79.26-1.89.43-2.45-.27-1.19-1.42-.57-3.39-.08-5l.18-.57a47.18,47.18,0,0,1,5.88-10.44.26.26,0,0,1,.11,0s0,0,0,.05A9.42,9.42,0,0,0,45,33.3s0,0,0,.06a.84.84,0,0,1-.11.3Zm2.7-5.47s-1.27,2.92-1.27,2.92c-.18.15-.47.07-.8,0L45,31a5,5,0,0,1-3.51-3.12c-.57-2.73,1.76-4.87,2.79-5.65s2.51-1,3.4-.34a3.57,3.57,0,0,1,.76,2.39,13,13,0,0,1-.81,3.9Z" fill="#fff" fill-rule="evenodd"/><path d="M130.3,37a3.84,3.84,0,0,0-3.72-2.14c-5.18.47-10.25,4.73-12.92,10.85A31.65,31.65,0,0,0,111,55.56,27.54,27.54,0,0,1,119.63,49a18,18,0,0,1,3.1-7.48c1-1.46,2.94-3.81,5.14-3.19,1.93.65,1.25,6-1.31,11.12a35.77,35.77,0,0,1-7.71,10.2c-2.59,2.19-6.42,4.85-9.77,2.8-2.11-1.25-3.19-3.86-3-7.24,1-9.56,5.36-17.71,11.6-27,6.42-8.62,13.5-17.47,23.05-22.19a6.43,6.43,0,0,1,5.3-.6s-8.95,4.92-13.22,14c-1.09,2.31-2.6,5.43-1.08,8.2a3.21,3.21,0,0,0,3.34,1.48c5.24-1.22,8.62-6.1,11.38-10.57,1.6-3.4,3-6.77,3-10.52,0-.45,0-1.06-.06-1.51,2.5-1.33,7.62,1,7.62,1,4,1.32,12.54,7.86,15.42,9.11,1.4-1.63,3.71-4.09,5-5.32l-1.88-1.16c-3-1.84-6.19-3.58-9.33-5.3a18.63,18.63,0,0,0-15.85-1.46c-1.15.42-2.21.78-2.21.78-2.19-2.39-5.78-2.16-8.42-1.52-9.5,2.73-18.33,9.38-27.79,20.91-7,9-11.26,16.85-13.56,24.56-1.78,5.19-2.32,12.82,2,17.35,3.68,3.84,8.56,3,12,1.63,7.46-3.68,14.17-11.6,17.51-20.71.81-2.71,1.7-6.53.31-9.45ZM147.46,8.43c-1,11.33-9.79,18-12,18.51-1.32.26-3.57-.32-1.56-5.08,3-6.4,8-11.84,13.44-14.62a2.89,2.89,0,0,1,.09,1.19Z" fill="#fff" fill-rule="evenodd"/><path d="M199.7,9.87c-4.74,2.69-9.65,4.43-15.59,3.83-1.65,1.85-3.25,3.77-4.73,5.74,8.34,2.12,17.19-2.6,22.12-7.09a34.76,34.76,0,0,0,7.89-10.23,41.51,41.51,0,0,1-9.69,7.75Z" fill="#fff" fill-rule="evenodd"/><polygon points="110.18 19.19 103.97 19.19 100.46 25.12 106.67 25.12 110.18 19.19 110.18 19.19" fill="#fff" fill-rule="evenodd"/><path d="M184.08,61.83c-.66.46-1.6.08-1.25-1,.87-2.65,4.35-8.11,4.35-8.11l9.68-17.22h-6.63l-1,1.74a9.15,9.15,0,0,0-1.6-1.87c-1.62-1-4-.53-5.64.39-7.13,4.17-12.33,12.41-16.43,18.84,0,0-4.32,7.14-6.72,7.67-1.87.15-1.68-2.37-1.6-3a48.43,48.43,0,0,1,4.1-11.93,93.89,93.89,0,0,0,11-8.94c7.75-7.41,14.28-15.8,15.23-17.68a15.09,15.09,0,0,1-2.25.25c-6,8.31-18.16,20.4-21.86,22.2,1.64-3.94,12.22-22.75,21.23-31.75l1.42-1.37c2.19-2.14,4.46-4.33,6.23-4.69.19,0,.43,0,.64.43a8.17,8.17,0,0,1-1.25,4.3l-1,2.05s1.41-.27,2.34-.57c1.08-2,2.27-4.3,1.83-7A2,2,0,0,0,193.26,3c-2.69-.52-5.62,1.47-8,3.08l-.09.06C173.07,15.59,162.84,29.27,153.9,48c-.65.49-3.15,1.08-3.58.79a30.09,30.09,0,0,0,2.55-6.91,17.83,17.83,0,0,0,.19-2.29,4.83,4.83,0,0,0-1.85-4.23,6.43,6.43,0,0,0-5.26.19c-6.39,2.65-11.17,9.21-14.62,14.61-1.85,3.43-3.7,7.1-4.21,11.31-.36,3.29.37,5.42,2.24,6.48s4.36,0,5.31-.53c6.48-3.41,11-10.25,14.57-16.5a21.19,21.19,0,0,0,3.56-.46.08.08,0,0,1,.06,0c-.08.28-.84,2.56-.84,2.56-2.27,6.63-3.31,11.14-1.17,13.81,3.05,3.77,8.1-.13,12.21-5.29-.88,6.18,2.32,7.14,4.76,6.67,2.8-.76,5.92-3.75,7.37-5.28-.46,1.79-.34,5,2.21,5.34,1.75.32,3.06-.57,4.57-1.39C187.4,63.9,193.9,54,195.58,51.26h-2.21c-2.4,3.55-5.45,8.32-9.29,10.57Zm-48.72-.72a3.07,3.07,0,0,1-.47-1.7c-.06-3.71,3.93-10.33,6.75-14h0a10.31,10.31,0,0,0,5.48,5c-2,4.47-8.9,14.08-11.77,10.74Zm12.9-12.71A5.59,5.59,0,0,1,144,44.27c-.55-2.69,1.3-4.79,3.09-5.85a3.07,3.07,0,0,1,2.78-.51,2.81,2.81,0,0,1,1,2.5,15.74,15.74,0,0,1-.15,1.85l0,.14a25.13,25.13,0,0,1-2.48,6Zm27.07,11.52-.64.57c-.91.81-1.85,1.69-3,1.25a1.12,1.12,0,0,1-.58-.85c0-2.33,1-4.49,2-6.6l.27-.54c2.92-4.89,6.33-10.65,11.32-14.65a2.81,2.81,0,0,1,2.72-.72,1.43,1.43,0,0,1,.48.93,1.52,1.52,0,0,1-.16.51c-1.39,2.26-2.72,4.62-4,6.9a95.44,95.44,0,0,1-8.43,13.2Z" fill="#fff" fill-rule="evenodd"/></svg>