<svg xmlns="http://www.w3.org/2000/svg" width="268" height="46" viewBox="0 0 268 46"><path d="M231.76,28.55h0V43.31H240V28.74c0-5.5,2.14-7.33,5.93-7.33h2.92V14.08h-3.6c-8.66,0-13.52,5.3-13.52,14.47Z" fill="#fff"/><path d="M115,28.55h0V43.31h8.27V28.74c0-5.5,2.14-7.33,5.94-7.33h2.91V14.08H128.5c-8.66,0-13.53,5.3-13.53,14.47Z" fill="#fff"/><path d="M252.09,11.86h0c0-1.06.11-4.92,3.51-7.14,2.33-1.35,4.77-1.35,7.3-1.35h3.22V9.83h-1.86c-1.27,0-2.53.1-3.22,1.35-.48.68-.48,1.06-.48,2.32v1h5.56v6.66h-5.56V37.91s-.19,5.4-4.77,5.4h-3.7s-.09-30.58,0-31.45Z" fill="#fff"/><path d="M16,35.78h0c1.16,0,2.33.1,3.5,0,1.85-.09,3.41-.29,4.57-1.83a4.71,4.71,0,0,0,1-3.09,4.46,4.46,0,0,0-3.6-4.63A30.48,30.48,0,0,0,16.68,26H10.84v8.58s.1,1.16,1.17,1.16ZM15.7,18.9h0c3.12,0,5.16.1,6.43-.48a3.81,3.81,0,0,0,2.14-3.67,3.33,3.33,0,0,0-2.34-3.37c-1.17-.49-2.62-.49-5.25-.49H10.84v8ZM15.32,3.37h0c2.14,0,4.37-.1,6.52.09,1.45.2,5.83.49,9.05,3.86a8.94,8.94,0,0,1,2.33,6.18,8.6,8.6,0,0,1-3.79,7.43,6.3,6.3,0,0,1-1.95,1,11.14,11.14,0,0,1,2.63,1.54,9.46,9.46,0,0,1,4.18,8.3,12,12,0,0,1-1.94,6.56c-3.8,5.4-10.61,5-12.27,5H7.63c-5.55,0-5.75-5.69-5.75-5.69V3.37Z" fill="#fff"/><path d="M69.52,14.37H78V43.31H69.52Z" fill="#fff"/><path d="M172.2,28.93h0c0,3.67,1.06,5.6,2.23,6.85a4.8,4.8,0,0,0,4,1.74,5.48,5.48,0,0,0,3.31-1c1.75-1.25,2.92-3.57,2.92-7.91,0-.67.19-4.82-2.43-7a5.51,5.51,0,0,0-3.6-1.25C175.5,20.44,172.2,22.57,172.2,28.93ZM193,3.37h0V43.31h-8.38a28.54,28.54,0,0,1,.19-3.38A6.47,6.47,0,0,1,183,42.34c-2.24,1.93-5.55,1.93-6.33,1.93a12.75,12.75,0,0,1-5.45-1.06c-3.3-1.64-7.49-5.69-7.49-14.08a20.83,20.83,0,0,1,1.07-6.56c1.85-5.41,6.13-9.07,12.07-9.07a10.88,10.88,0,0,1,6.42,1.93,7.58,7.58,0,0,1,1.07,1.35V8.58a5.1,5.1,0,0,1,5.45-5.21Z" fill="#fff"/><path d="M57.36,25.36h0a3.72,3.72,0,0,0-.2-1.25A5.44,5.44,0,0,0,51.62,20,6.07,6.07,0,0,0,45.78,24c-.2.58-.3,1.26-.39,1.45l12-.1Zm-11.88,6h0a6,6,0,0,0,1.17,3.56A6.1,6.1,0,0,0,52,37.71,5.76,5.76,0,0,0,57.16,35h8.66c-3.21,8.78-11,9.45-14.2,9.45a17.58,17.58,0,0,1-5.55-1c-6.13-2.22-9.25-8-9.25-14.28a17.64,17.64,0,0,1,3.31-10.51c1.56-2,5.06-5.31,11.58-5.31a16.58,16.58,0,0,1,6,1.16c2.92,1.25,6.61,4.15,8,11.09a32.1,32.1,0,0,1,.48,4.73,3.55,3.55,0,0,1-.09,1Z" fill="#fff"/><path d="M102.71,25.36h0a3.72,3.72,0,0,0-.2-1.25A5.44,5.44,0,0,0,97,20,6,6,0,0,0,91.13,24a7.83,7.83,0,0,0-.39,1.45l12-.1Zm-12,6h0a7.63,7.63,0,0,0,1.17,3.56,6.19,6.19,0,0,0,5.35,2.8,5.64,5.64,0,0,0,5.16-2.7h8.66C108,43.79,100.18,44.46,97,44.46a17,17,0,0,1-5.55-1c-6.23-2.22-9.34-8-9.34-14.28a17.19,17.19,0,0,1,3.4-10.51A13.92,13.92,0,0,1,97,13.4a15.93,15.93,0,0,1,6,1.16c2.92,1.25,6.72,4.15,8,11.09a30.4,30.4,0,0,1,.49,4.73,3.2,3.2,0,0,1-.1,1Z" fill="#fff"/><path d="M152.34,23.05h0a3.69,3.69,0,0,0-.58-1.45c-.59-1.06-2-2-4.58-2-.78,0-1.36.09-1.56.09-1.84.48-2.53,1.64-2.53,2.51a1.73,1.73,0,0,0,1.17,1.54,18.37,18.37,0,0,0,3.31,1l3.12.58,2.73.58c2.91.77,5.34,1.64,6.7,4.53a11,11,0,0,1,.78,3.76,9.45,9.45,0,0,1-1.75,5.6c-1.65,2.51-4.86,4.53-11.28,4.53s-9.54-1.93-11.39-4.15A10.73,10.73,0,0,1,134.14,34h8.08a4.12,4.12,0,0,0,.68,2.12c.69,1,2.33,2,5.16,2a7.22,7.22,0,0,0,1.75-.19c.3-.1,2.63-.68,2.63-2.71s-1.85-2.31-5-3C142,31,139.3,30.38,137.26,28.55a7.27,7.27,0,0,1-2.24-5.5,9.68,9.68,0,0,1,1.46-5c1.66-2.41,4.67-4.53,10.8-4.53,1.36,0,7.39-.1,10.9,4.15a8.28,8.28,0,0,1,2,5.4Z" fill="#fff"/><path d="M205.57,28.93h0c0,6.56,3.71,8.59,6.91,8.59a8.13,8.13,0,0,0,3.12-.68c1.94-1.06,3.8-3.37,3.8-8.2a12.29,12.29,0,0,0-.59-3.95,6.17,6.17,0,0,0-6.33-4.54c-3.2.1-6.91,1.93-6.91,8.78Zm17.24-12.06h0A15.46,15.46,0,0,1,228,28.74c0,6.46-3.6,12.64-9.93,14.76a17.45,17.45,0,0,1-5.64.77,18.39,18.39,0,0,1-6.24-1C200.12,41,197,35.2,197,28.93A16.63,16.63,0,0,1,200.9,18a16,16,0,0,1,11.78-4.53c1.66.09,6.22.19,10.13,3.37Z" fill="#fff"/><path d="M78.67,6.07h0a4.93,4.93,0,0,1-9.83,0,4.93,4.93,0,0,1,9.83,0Z" fill="#fff"/></svg>