<svg xmlns="http://www.w3.org/2000/svg" width="121" height="120" viewBox="0 0 121 120"><path d="M71,13.56a1.33,1.33,0,1,0,0-2.66,1.33,1.33,0,1,0,0,2.66Z" fill="#fff" fill-rule="evenodd"/><path d="M52.65,11.19a1.15,1.15,0,0,0,1.14-1.14,1.14,1.14,0,0,0-2.28,0,1.16,1.16,0,0,0,1.14,1.14Z" fill="#fff" fill-rule="evenodd"/><path d="M38.91,39.24l-.57-.56c1.61-1.52,3.22-3.8,3.51-5.12a.87.87,0,1,1,1.7.28c-.47,1.8-2.56,3.89-4.64,5.4Z" fill="#fff" fill-rule="evenodd"/><path d="M27.25,11.66c-2.85,1.23-3.23,4.17-1.23,6,2.36,2.09,6.44.29,6.06-3,3.22.19,5.31-3.22,4.84-5.5,1.42-1.23,1.51-3.89-.19-4.93C34.83,3,33.12,3.41,32,5.59c-2.94-.19-5.79,2.09-4.74,6.07l-1.33-.57c-1.8-3.89,1.33-7.77,5.21-6.82a4.78,4.78,0,0,1,6.92-2,4.51,4.51,0,0,1,.38,7.39c1.24,3.6-1.32,6.63-5.12,6.26-.47,4.73-4.83,5.3-7.77,3.12A7.6,7.6,0,0,1,23,14.69c-.38-1.42-.38-2.65-1.7-4.07a4.73,4.73,0,0,0-2.94-1c0-3.41-3.13-6.54-7.11-5C9.81,3.32,8,3.22,6.77,4.74A2.72,2.72,0,0,0,7.91,8.91C7.81,12,10.18,14,13.69,13.74a4.24,4.24,0,0,0,3.6,3.42L17.2,18c-1.71-.19-2.65.38-3.79,1.8-4.08-.19-6.92,1.71-6.83,4.65a3,3,0,0,0-1.8,5.12,2.94,2.94,0,0,0,4.84-.95c2.93.57,5.49-1.52,5.59-3.89,2.65,0,3.89-1.14,4.36-3.6l.95.09c.28,2.66-.95,5.22-4.17,4.93-.1,3.23-3.13,4.93-6.07,3.89a4.22,4.22,0,0,1-7,1A4.4,4.4,0,0,1,5,23.6c0-3.12,2.37-6.06,6.83-4.93a2.5,2.5,0,0,1,2-1.51,2.46,2.46,0,0,1-1.8-1.9,4.6,4.6,0,0,1-5.5-5.5c-3-1.61-3.13-4.64-1.61-6.44A4.37,4.37,0,0,1,11.42,3C15.49.85,20,3.6,19.66,8.15a3.93,3.93,0,0,1,4.17,4.74,2.53,2.53,0,0,1,2.09-1.8l1.33.57Z" fill="#fff" fill-rule="evenodd"/><path d="M34.17,6.16l.66.48A23.88,23.88,0,0,1,29.24,14l-.76-.66a44.1,44.1,0,0,1,5.69-7.21Z" fill="#fff" fill-rule="evenodd"/><path d="M14.64,21.33l.38.76a32,32,0,0,1-6.35,4.74l-.57-.76a22.55,22.55,0,0,1,6.54-4.74Z" fill="#fff" fill-rule="evenodd"/><path d="M18.53,13.18l-.76.94a40.05,40.05,0,0,1-7.4-6.63L11,6.82a35,35,0,0,1,7.49,6.36Z" fill="#fff" fill-rule="evenodd"/><path d="M14.55,49.39c.28,1.23,0,2.65,1.13,4a43.47,43.47,0,0,0,4.17,4.74c-2.18.85-6.44,2.65-9.48,3A5.11,5.11,0,0,0,8.48,62a9.53,9.53,0,0,0-1,3.13c-.09.95-.09,2-.09,3a16.58,16.58,0,0,0,1.51,6,7.11,7.11,0,0,0,3.32,3.51A5.71,5.71,0,0,1,14,77.45a6.28,6.28,0,0,1,4.93,2.27c.28.47.94.57,1.7.57a16.64,16.64,0,0,0,5.88-1.42c.47-.29,1.61-1.14,2.75-2s7.68-6.45,10.52-7.78a15.27,15.27,0,0,0,6.54,1.81,2.68,2.68,0,0,0,1.14-.1c.76-.19,1.8-.47,3.13-.76a42.51,42.51,0,0,1,5.78-.85c2.08.09,8.25.19,9.76.19s3.7-.1,4.55-.19a73.28,73.28,0,0,0,7-2.47,56.24,56.24,0,0,0,9.48-6.25,8.38,8.38,0,0,0,1.23-1.23c.09-.19.19-.29.19-.38s-.1-4.08-.1-4.08,1.43-1.52,2-2.09v-.18a21.17,21.17,0,0,1-.37-5.69l-1.33-.67a15.49,15.49,0,0,1-2.28,7.4c-2.08.28-6.16,1.51-7.58,3.22l.85.19a8.71,8.71,0,0,1,4.46-1.23c1.42,0,2.08.38,2.08.76a6,6,0,0,1-.38,1.23,1.67,1.67,0,0,1-.47.76A26.5,26.5,0,0,1,78.53,64a30.33,30.33,0,0,1-6.26,2.55,18.23,18.23,0,0,0-2.65.76c-1,0-6.35-.19-9.48-.19a79.53,79.53,0,0,0-11.56,1c-.95.29-1.24.66-2.28.66A17.14,17.14,0,0,1,40,66.92a5,5,0,0,0-1.42.57c-1.13.57-3.69,4.17-5.21,3-.76,1.61-4.08,3-5.12,4.64.09-.76,1.42-6.26,1.52-7.39,0-.19.09-.38-.1-.57-1.14-2-4.55-3.22-6.44-3.6-.48-.1-.76-.19-1.14-.29l-3-.85-2.75.85,3.22.57-4.08,2.75c.76-.28,5.12-1.52,5.41-1.61a2.05,2.05,0,0,1,1.32,0c.67.19,2.28.57,3.32,1a4.65,4.65,0,0,1,1.8,1.8,11.28,11.28,0,0,1,.19,1.89,11.55,11.55,0,0,1-.28,2.47,16.45,16.45,0,0,1-1.71,4.07,2.22,2.22,0,0,1-1.42,1.24A8,8,0,0,1,21,78.2c-.85,0-1.42-.09-1.8-.56a6.76,6.76,0,0,0-6.54-2.37c-1.71-1-3.41-4.36-3.41-7a18.92,18.92,0,0,1,1.23-5.4c2.75-.38,8.34-2.47,11-3.7a30.93,30.93,0,0,1,3.69-.57c3.6,0,7.21,3.13,9.39,5.31a3.1,3.1,0,0,1,2.94-1.52c2.55,0,4.07,2.37,4.73,4.74l1.33-.94a8,8,0,0,0-2-4,6.28,6.28,0,0,0-3.89-1.61c-.85,0-1.61.19-2.18.19-1.8,0-2.55-.85-4-1.8s-4.17-2.46-6.16-2.46c-1.23,0-1.8.47-2.84.47a2.86,2.86,0,0,1-2.75-1.52,25.63,25.63,0,0,1-2.28-2.27,10.61,10.61,0,0,1-.85-2.28l-2.08-1.51Z" fill="#fff" fill-rule="evenodd"/><path d="M16.63,50.9a19.08,19.08,0,0,0,1.42,1.43c.57.37,1.23.75,1.8,1.13.95.48,2,1,2.94,1.43a17.6,17.6,0,0,0,3.13.28c1.52,0,3.32-.28,4.83.47,1.05.38,1.05,1.52,1.9,1.8,1.23.48,4.65.57,6.54.57a51,51,0,0,0,10.33-1l-1.13-1.33a77.9,77.9,0,0,1-8.91.86c-3.13,0-6.17-.57-6.17-1.8a2.61,2.61,0,0,1,2.85-2.28,20.26,20.26,0,0,1,5.59,1.42,1.47,1.47,0,0,0,1.14-.09L44,53.18c-1.52-.76-6.92-2.56-8.82-2.56a2.08,2.08,0,0,0-2,.85c-.66,1-2.65,1.8-5.69,1.8a20.79,20.79,0,0,1-4.64-.57A21.17,21.17,0,0,1,19,50.43a12.54,12.54,0,0,1-3.7-3.7,2.28,2.28,0,0,1-.47-1.32c0-.38.19-.67.19-.95a4.5,4.5,0,0,0,1,.95,12.68,12.68,0,0,0,6.44,3.22,7.91,7.91,0,0,0,2.09.28,4.29,4.29,0,0,0,2.65-1.13l-1-1.14a6.14,6.14,0,0,1-1.33.09c-3.6,0-8.15-2.27-9.19-5-.1-.29-.29-.38-.1-.66a12.35,12.35,0,0,0,.29-1.24c.19.19.66.57,1.14.95,1.32.85,3.88,2,4.45,2.37a18.5,18.5,0,0,0,2.94-1.23,6.7,6.7,0,0,1,2.94-.76c2.65,0,5.69,1.52,8.53,2.94l1.89-.76c-2.55-1.8-8-4.27-11-4.27-1.8,0-3.51,1.33-4.74,1.33-1.42,0-5.59-2.08-5.59-3.79,0-1.33,2.65-2.09,7.11-2.56-.76,1-1.52,2.28-2.18,3.41l1.13.67a75.48,75.48,0,0,1,20-20.38,7.89,7.89,0,0,0,3.42-3.8c1.89-3.88,3.69-6.73,6.73-6.73A4.6,4.6,0,0,1,56,8.91l2.18.66-2.27,1.52,2.27.95a14.57,14.57,0,0,0-8.72,8.06c-3.13.09-4.65,2.75-5.69,4.83-.76,1.52-1.8,2.09-3.51,3.13l-13,9.1,1.8.28,12-8a12.33,12.33,0,0,0,4.07-3.89c1.05-2.28,2.28-4,4.65-4A5.3,5.3,0,0,1,53.22,23l2.09.67L53,25.12l1.9,1.14C49.43,28,46,32,44,39.53l1.42.28A30.79,30.79,0,0,1,48.2,33c3.22,0,6.44-.1,9.67-.1,8.43,0,15.45.38,19.24,1.42L75.78,32c-4.07-.76-10-1-17.91-1-2.75,0-5.41.09-8.16.09a18.29,18.29,0,0,1,8.16-4.55L55.12,25l3-1.71L54,21.8a6.11,6.11,0,0,0-2.75-1.61c1.33-4.08,5.88-6.45,10.24-8.06l-3-1.23,3-1.71L56.73,7.68a5.09,5.09,0,0,0-4.27-2.09c-4.36,0-6.16,3.79-8,7.11a7.09,7.09,0,0,1-3,3.6,70.59,70.59,0,0,0-11.76,9.86c-2.08-1.51-6.54-6.06-7.68-8.53a8.35,8.35,0,0,0-.94,1.9c.47.47,5.59,5.59,7.48,7.86a2.22,2.22,0,0,0-.37.48c-2.09.38-7.4.95-9.2.66l-.95,1.8c1.33-.09,6.54-.75,8.82-.85-.67.76-1.33,1.61-2,2.47-6.83.75-11.28,2.18-11.28,4.64,0,.38.09.85.09,1.33a1.89,1.89,0,0,1-1.14,1.89c-.47.29-.47.57-.28.86a11.92,11.92,0,0,1,1.23,2.08c0,.57-.47,1-.85,1.52s-.38.47-.1.95l2,4.17,2.08,1.51Z" fill="#fff" fill-rule="evenodd"/><path d="M100.52,27.68a17.19,17.19,0,0,0-1.13,1.42l-1-1.52c3.6-4.83,13.27-7.1,19-7.58V17.44c-.76.19-1.52.48-2.27.67a9.58,9.58,0,0,1-2.66.37,2,2,0,0,1-1.8-.75c-.76-1.05,0-2.66,2.47-4.17l-2-1.71c-1.51,2-2.93,4.17-4.45,5.4s-2.84,1.8-4,.95c-.67-.47-.86-.66-1-1.9A18.37,18.37,0,0,1,103.75,10l-2.28-.28a16.91,16.91,0,0,1-2.75,6.92A17,17,0,0,1,93.41,22l-1.32-1.23A14.84,14.84,0,0,0,97,16.21c1.61-2.47,2.93-5.5,2.93-8.15l6.64.57a22.48,22.48,0,0,0-3,5.87c-.29,1.05-.29,1.9.09,2.18.66.48,1.9-.38,3.13-1.61a52.78,52.78,0,0,0,4.07-5.59l4.93,4c-2.18,1.14-4.26,2.47-3.88,3.22s1.8.48,3.32,0a15.39,15.39,0,0,0,3.6-1.61v6.54a39.11,39.11,0,0,0-10.15,1.61c1,1.24,3.51,1.71,5.12,2L113,30.52a29.61,29.61,0,0,0-12.52-2.84l1.71-1.52a24.81,24.81,0,0,1,9.57,2.28l.29-2a9.7,9.7,0,0,1-5.31-2.56,18.62,18.62,0,0,0-4.55,2.27l-1.71,1.52Z" fill="#fff" fill-rule="evenodd"/><path d="M80.62,44.55l1.51-3.41a61.21,61.21,0,0,1-5-6.83L75.78,32c-3.13-5.88-2-8.72-3.6-11.38-1.42-2.08-8.06-.75-9.1-.56L65,17l-3.8.28,3.23-3.79a7.15,7.15,0,0,0,.85-2.27c.57-2.09,2.27-5.5,7.39-5.5,5.6,0,7.4,4.55,9.77,6.54,2.84,2.27,6.44,5.4,9.67,8.53L93.41,22a58,58,0,0,1,4.93,5.59l1,1.52c6.82,9.86,15.16,28.72,19,37.35.29.85.57,1.71.86,2.37q-3.84-2.13-8.25-5.12l-1.61-1.14-3.13-2.27-1.71-1.42c-1-.76-2.08-1.62-3-2.47L104.88,76c.19,1.24,1.24,1,2,0s1.14-1.32.76-2.65l-3.13-14.5,1.71,1.42,3,12.23c.29,1.13.76,1.51,2.09,1.51s1.52-.38,1.33-1.23l-3.32-10.24L111,63.7l3.13,9.2c.85,2.37,0,2.65-1.42,2.65s-2.66-.38-3.42.09-1.7,1.9-2.94,3c-.94,1-2.46.85-2.74-1.14l-3.8-22.65a93.48,93.48,0,0,1-6.82-6.83c-.85-.38-1.9-.85-2.84-1.23l-1.33-.67c-.57-.28-1-.38-1-.47a30.73,30.73,0,0,1-3.23,3.6,2.38,2.38,0,0,1-1.89.86,1.7,1.7,0,0,1-1-.19,3.09,3.09,0,0,1-1-1.14c-.29-.38-.67-1-1.05-1.52-.76-1.23-1.51-2.84-2.27-4.07-.76-1.43-1.52-2.47-1.61-2.66a1.66,1.66,0,0,0-.48-.57,4.8,4.8,0,0,0-.76,2.56l-1.32-.47a9.22,9.22,0,0,1,.76-2.75,1.31,1.31,0,0,0-1-1.14c-.66,0-1.32.66-1.61,2l-1.42.67c.09-2.18.85-4.55,3-4.55,1.71,0,2.85,1.32,3.61,2.55s3.6,4.93,4.17,5.69l1,1.33a4.19,4.19,0,0,0,.76,1.61c.38.57.76.57,1.32,0a16.54,16.54,0,0,0,1.9-1.71,18,18,0,0,0,1.61-2c.76.29,2.28,1.05,3.41,1.52-5-6.26-10-13.84-12-19-.86-2.18.85-2.84,1.61-.76,2.27,5.69,8.81,15.83,13.65,21.14,5.5,6.07,15.64,15,22.27,18.49-.94-1.9-2.18-4.55-3.69-7.68C104.41,53,96.35,44.65,92.56,37.44l1.61.19c3.51,6.26,12,14.6,17,17-4.55-9.67-10.52-21.9-15.07-27.11A139,139,0,0,0,81,13.27c-2.94-2.65-4.18-5.88-8.35-5.88-3.5,0-5.4,2.56-6.06,5A5.65,5.65,0,0,1,66,13.74l-1.71,2,3.6-.38L65.83,18.2s5.59-1.23,7.58,1.42c2.09,2.85.76,6.07,4.27,12.42a54.55,54.55,0,0,0,6.44,8.82l-2.46,5-1-1.33Z" fill="#fff" fill-rule="evenodd"/><path d="M25.45,45.41l-.86-.57A10.32,10.32,0,0,1,27,43.42a4.27,4.27,0,0,1,1.42-.29,4.86,4.86,0,0,1,2.56.85,9.36,9.36,0,0,0,3.8,1.43c.38,0,.75-.1,1.23-.1a26.42,26.42,0,0,1,2.75.47c.38,0,.57-.28.85-.66A4.92,4.92,0,0,1,42,43.23a9.68,9.68,0,0,1,3.88-.67,16,16,0,0,1,2.85.29s-.86,1-1.05,1.32a14.4,14.4,0,0,0-4.83.48,1.63,1.63,0,0,0-1.23,1.61c0,1,1.23,1.52,2.46,1.89a11.46,11.46,0,0,0,2.37.29,26.31,26.31,0,0,0,4.36-.76,37.32,37.32,0,0,0,4.55-1.14l.76,1.33a49.42,49.42,0,0,1-6.83,1.9,15.72,15.72,0,0,1-3.41.47,12.26,12.26,0,0,1-5.21-1.52,10.2,10.2,0,0,0-3.6-1.23,6.24,6.24,0,0,0-3.32,1,31.46,31.46,0,0,1-3.6,2,9.26,9.26,0,0,1-3.13.67A3.24,3.24,0,0,1,25,50.62l1.71-1a1.76,1.76,0,0,0,.85.28,3.11,3.11,0,0,0,1.23-.38,8.22,8.22,0,0,0,1.33-.66c.66-.48.85-.76,1.14-1a.85.85,0,0,0,.09-1.52c-.38-.28-.66-.57-1-.85a3.49,3.49,0,0,0-2.18-.66,5.42,5.42,0,0,0-2.65.57Z" fill="#fff" fill-rule="evenodd"/><path d="M49.52,46.07a9.91,9.91,0,0,0-1.32-.29,10,10,0,0,1,2.27-2.18A9.24,9.24,0,0,1,55.59,42a21,21,0,0,1,2.47-.19c.66.1,1.7.1,2.65.29.66.09,1.33.28,1.9.38a6,6,0,0,0,1.8,0,15.85,15.85,0,0,0,4.45-1.42l.38,1.51a14.77,14.77,0,0,1-6.73,2.18c-1,0-2.27-.09-3.41-.19-1.9-.19-3.6-.47-4.17-.47a9.55,9.55,0,0,0-5.41,2Z" fill="#fff" fill-rule="evenodd"/><path d="M48,54.51l-2-.95a42.17,42.17,0,0,1,8.72-3,40.76,40.76,0,0,0,4.83-.85c.57,1.33,1.61,2.66,3,2.66A8.37,8.37,0,0,0,65,51.57c1-.48,2-1,2.55-1.14s2.37-1,4-1.8c.56-.29,2.18-1,2.27-1l1,.56a22.06,22.06,0,0,1-1.42,4.27,6.38,6.38,0,0,1-.66,1.14,16.66,16.66,0,0,1-2.18,1.89,41.34,41.34,0,0,1-3.7,2.28,35.08,35.08,0,0,1-3.22,1.71l-.48-1A52.78,52.78,0,0,0,68,55.17a14.2,14.2,0,0,0,1.8-1.52,3.07,3.07,0,0,0,.76-.85A11.35,11.35,0,0,0,72,50.34c-.66.28-2.94,1.42-4,1.89-1.23.66-3.13,1.61-4.27,2.18a4.91,4.91,0,0,1-2.08.57,2.28,2.28,0,0,1-2.09-1.42c-.76-1.33-1.51-1.42-3.69-1.42A14.34,14.34,0,0,0,48,54.51Z" fill="#fff" fill-rule="evenodd"/><path d="M59.67,48.25s-.29-1.14-.48-1.61a3.75,3.75,0,0,1,.86-.1c.66,0,2.56.19,3.31.19,2.85,0,3.89-.85,4.74-1.61a4.44,4.44,0,0,1,3.42-1.23,11.73,11.73,0,0,1,4.26,1l-.09,1.61a6.49,6.49,0,0,0-3-.76,3.68,3.68,0,0,0-1.8.28A13.47,13.47,0,0,0,69.53,47a8,8,0,0,1-2.09,1.13,9.09,9.09,0,0,1-3.7.57,19.67,19.67,0,0,1-4.07-.47Z" fill="#fff" fill-rule="evenodd"/><path d="M41.47,60.1l1.32-.57a13,13,0,0,0,4.17,1,4.6,4.6,0,0,0,1.81-.47c.37-.19,4.83-2.37,7-3.13a5.16,5.16,0,0,1,1.71-.38c.57,0,.57.19.75.48.38.66,3.7,5.3,4,5.59,2.75-.86,5.59-2.09,7.2-3.6s3.13-3.51,4.55-5A7.08,7.08,0,0,1,75.4,52.8C76.82,52,81.28,52,83.08,52l-1,1.52c-3.32,0-5.12.38-6,.95A11.38,11.38,0,0,0,74.74,56c-1.14,1.42-2.37,3.42-2.85,3.79a5.92,5.92,0,0,0,3.7,1.24,8.7,8.7,0,0,0,5.78-2.66l.95.48a10.09,10.09,0,0,1-2.46,2.46,12.24,12.24,0,0,1-3.32,1.52c-1.61-.29-5.12-1.05-6-1.14-3,1.23-8.06,3.22-9.67,3.7a3.69,3.69,0,0,1-1.14.19,43.09,43.09,0,0,1-4.83,0,22.13,22.13,0,0,1-2.85-.1L50.57,64a11.45,11.45,0,0,0,3,.28,25.13,25.13,0,0,0,5.31-.57c.57-.19.66-.47.47-1a7.92,7.92,0,0,0-1.32-2.18,13.83,13.83,0,0,0-1.43-1.23c-.38-.28-.75-.38-1.89,0a47.83,47.83,0,0,0-5.41,2.75,3.22,3.22,0,0,1-2.37.19,23,23,0,0,1-5.49-2.18Z" fill="#fff" fill-rule="evenodd"/><path d="M50.09,25.59a1.22,1.22,0,0,0,1.14-1.13,1.15,1.15,0,0,0-1.14-1.14A1.09,1.09,0,0,0,49,24.46a1.14,1.14,0,0,0,1.13,1.13Z" fill="#fff" fill-rule="evenodd"/><path d="M93,91.1a1.68,1.68,0,0,0-1.7-1.62H89a1.69,1.69,0,0,0-1.71,1.62l.1,25.4A1.6,1.6,0,0,0,89,118.11h2.37A1.68,1.68,0,0,0,93,116.5V91.1Z" fill="#fff" fill-rule="evenodd"/><path d="M96.07,91.85V93a.9.9,0,0,0,1,1H113.7a1.45,1.45,0,0,0,1.42-1.42v-2a1.39,1.39,0,0,0-1.42-1.42S97.58,90.72,97,90.81a1,1,0,0,0-1,1Z" fill="#fff" fill-rule="evenodd"/><path d="M82.51,118.11a6.5,6.5,0,0,1-6.73-6.63V101.33H74.55a1.22,1.22,0,0,1-1.14-1.13V98.49a1.16,1.16,0,0,1,1.14-1.14h1.23V91.1a1.6,1.6,0,0,1,1.61-1.62h2.37a1.58,1.58,0,0,1,1.52,1.62v6.25H85a1.1,1.1,0,0,1,1.13,1.14v1.71A1.15,1.15,0,0,1,85,101.33h-3.7v9.39a2.94,2.94,0,0,0,3.13,3.13h.38A1.19,1.19,0,0,1,86,115.08v1.8a1.26,1.26,0,0,1-1.23,1.23Z" fill="#fff" fill-rule="evenodd"/><path d="M54.07,107.4c0-5.4-3.22-10.81-10.52-10.81-6.73,0-10.43,5.31-10.43,10.81,0,5.88,4,11.09,10.53,11.09,4.45,0,8.81-2.27,9.67-6.16a1.08,1.08,0,0,0-1-1.23H49.14a1.5,1.5,0,0,0-1.32.76,4.75,4.75,0,0,1-4.17,2,4.9,4.9,0,0,1-4.93-4.65H52.27a1.6,1.6,0,0,0,1.8-1.8Zm-15.26-2.27A4.67,4.67,0,0,1,43.55,101a4.86,4.86,0,0,1,4.93,4.18Z" fill="#fff" fill-rule="evenodd"/><path d="M115.69,107.4c0-5.4-3.22-10.81-10.52-10.81-6.73,0-10.43,5.31-10.43,10.81,0,5.88,4,11.09,10.52,11.09,4.46,0,8.82-2.27,9.67-6.16a1.06,1.06,0,0,0-1-1.23h-3.22a1.51,1.51,0,0,0-1.33.76,4.78,4.78,0,0,1-4.26,2,4.89,4.89,0,0,1-4.84-4.65h13.56a1.6,1.6,0,0,0,1.8-1.8Zm-15.26-2.27a4.83,4.83,0,0,1,9.57,0Z" fill="#fff" fill-rule="evenodd"/><path d="M71.23,89.77H27.44a1.79,1.79,0,0,0-1.8,1.8l.09,17.25s-9.38-17.06-9.86-17.91A3.24,3.24,0,0,0,13,89.29H9.43a1.8,1.8,0,0,0-1.8,1.81v25.21a1.74,1.74,0,0,0,1.8,1.8H11.7a1.74,1.74,0,0,0,1.8-1.8l-.09-17.63s9.48,17.16,10,17.82a2.93,2.93,0,0,0,2.75,1.61h3.32a1.74,1.74,0,0,0,1.8-1.8V94h40a1.25,1.25,0,0,0,1.23-1.23V91a1.26,1.26,0,0,0-1.23-1.23Z" fill="#fff" fill-rule="evenodd"/><path d="M64.12,100.76c1.9,0,3.32.67,3.89,1.9.19.57.66.66,1.33.66H72a1,1,0,0,0,1-.94c0-3-3.7-5.79-8.82-5.79-5.31,0-8.81,2.56-8.81,6.54,0,3.13,2.46,4.93,5.4,5.79,1.42.28,3.79.85,4.93,1.23s2.27.66,2.27,1.71c0,1.7-1.7,2.18-3.69,2.18-1.8,0-3.61-.76-4.08-2.09-.28-.76-.85-.85-1.61-.85H55.88a1.12,1.12,0,0,0-1.05,1v.38c0,2.94,4,6,9.48,6,3.79,0,9.2-1.61,9.2-6.73,0-3-2-5.12-5.31-6-1.23-.29-4.27-1.14-4.93-1.23-1.23-.38-2.37-.76-2.37-1.71,0-1.61,1.42-2.09,3.22-2.09Z" fill="#fff" fill-rule="evenodd"/></svg>