<svg xmlns="http://www.w3.org/2000/svg" width="211" height="110" viewBox="0 0 211 110"><path d="M108.26,1.82c-57.2,0-107,22.53-106.51,53.75C1.75,82.53,49.91,106,107,106a167.42,167.42,0,0,0,45.2-6.58s-.17-14.13,0-14.13c-.17,0,10.35-10.19,10.35-10.19h14.63c0,.16,10,10.19,10,10.19,12.33-7.89,21.53-19.56,22-29.76C211.32,25.49,165.3,1.82,108.26,1.82ZM42.67,62.64H38.89v-9h-10v9H25.09V41.11h3.78v8.55h10V41.11h3.78Zm17.59,0L58.46,58H49.58l-2,4.6H43.83L52,41H55.5L64,62.64Zm18.25,0-4.77-9-4.44-.16v9.2H65.52V41h11s4.43-.17,4.76,6.24c.17,3.29-1.31,4.61-3.78,5.59l5.26,9.86Zm18.9-18.57H91.49l-.16,18.57H87.88V44.07H82V41H97.41Zm24.33,18.57h-3.62V45.22L112,62.64h-3.61l-6.09-16.93V62.64H98.56V41h5.92l5.59,16.11L115.82,41h5.92Zm18.08,0L138,58h-8.87l-1.81,4.6h-3.78L131.77,41h3.28l8.72,21.69Zm24,0h-4.28L149,46.7V62.64h-3.62V41h4.27L160.2,56.56V41h3.62Zm21.53,0h-4.27L170.56,46.7V62.64h-3.62V41h4.28l10.52,15.61V41h3.61Z" fill="#fff"/><polygon points="50.56 55.08 57.3 55.08 53.85 46.21 50.56 55.08" fill="#fff"/><path d="M76.21,44.07H69.3v6.41h6.91A3.26,3.26,0,0,0,78,47.19C77.85,44.56,76.21,44.07,76.21,44.07Z" fill="#fff"/><polygon points="130.29 55.08 136.86 55.08 133.41 46.21 130.29 55.08" fill="#fff"/><path d="M163.16,77.11l-9,9v13l9,9h13.15l9-9v-13l-9-9Zm18.9,10v11h-2.63v4.27h-4.11v2.47h-11l-.16-2.47H160V98.15h-2.63v-11H160V82.86h4.11V80.23h11.17v2.63h4.11v4.28Z" fill="#fff"/><polygon points="173.35 89.93 166.28 89.93 166.28 83.68 160.86 83.68 160.86 101.6 166.28 101.6 166.28 95.35 173.35 95.35 173.35 101.6 178.78 101.6 178.78 83.68 173.35 83.68 173.35 89.93" fill="#fff"/></svg>