<svg xmlns="http://www.w3.org/2000/svg" width="181" height="146" viewBox="0 0 181 146"><path d="M101.7,9.56a.57.57,0,0,0,.4-.59.58.58,0,0,0-.25-.55h0a1.91,1.91,0,0,0-.83-.14h-.57V9.64h.61A2,2,0,0,0,101.7,9.56Z" fill="#fff"/><path d="M73.84,41.72h29a5.37,5.37,0,0,0,5.37-5.37V11.43h0V1.94H73.84a5.37,5.37,0,0,0-5.37,5.36v29A5.37,5.37,0,0,0,73.84,41.72ZM98.78,7.31a3.42,3.42,0,0,1,5.83,2.4,3.34,3.34,0,0,1-1,2.43h0a3.41,3.41,0,0,1-5.83-2.43A3.24,3.24,0,0,1,98.78,7.31Zm-8.8,0L89.53,16l-4.4,8.13-.19-10ZM77.3,34.59l5-2.81L75.67,20l.07-11.22,6.37,5.49,1.61,15.7L91.3,17,92.85,4.68,96.63,16.9,86.89,29.74l6.44-4.46,12.11-1-9.08,8.31-12.3.67L78.3,37.63l-5,.34-.63-3.85Z" fill="#fff"/><path d="M101.19,12.68a2.88,2.88,0,0,0,2.1-.86,2.91,2.91,0,0,0,.86-2.1,3,3,0,0,0-3-3,2.84,2.84,0,0,0-2.09.87h0a2.84,2.84,0,0,0-.87,2.09,2.94,2.94,0,0,0,3,3ZM99.81,7.82h1.32a2.85,2.85,0,0,1,1,.14.94.94,0,0,1,.59,1,.81.81,0,0,1-.37.74,1.18,1.18,0,0,1-.54.18.88.88,0,0,1,.63.37,1,1,0,0,1,.2.59v.27l0,.28,0,.19,0,.05h-.62l0,0V11.5l0-.12v-.3a.92.92,0,0,0-.36-.86,1.62,1.62,0,0,0-.74-.12h-.53v1.48h-.64Z" fill="#fff"/><path d="M69.48,94q1.45-11-2.25-16.16a11.76,11.76,0,0,0-10.09-5.16q-6.31,0-11.42,5.16T39.17,94q-1.44,11,2.28,16.13a11.83,11.83,0,0,0,10.08,5.09A15.68,15.68,0,0,0,63,110.1Q68,105,69.48,94ZM57.42,94a88.83,88.83,0,0,1-2.19,11.56q-1.3,4.78-3.06,4.78t-1.69-4.77A79.4,79.4,0,0,1,51.31,94a83.89,83.89,0,0,1,2.23-11.6c.88-3.2,1.87-4.82,2.94-4.82s1.78,1.6,1.8,4.82A84.54,84.54,0,0,1,57.42,94Z" fill="#fff"/><path d="M92.07,94.36q-1.45,11,2.28,16.14a11.85,11.85,0,0,0,10.07,5.1,15.68,15.68,0,0,0,11.45-5.14q5-5.11,6.51-16.12t-2.26-16.17A11.72,11.72,0,0,0,110,73q-6.33,0-11.42,5.17C95.22,81.64,93,87,92.07,94.36Zm12.12,0a88.46,88.46,0,0,1,2.24-11.6c.89-3.2,1.88-4.82,2.95-4.82s1.77,1.61,1.8,4.82a86.11,86.11,0,0,1-.87,11.59,87.33,87.33,0,0,1-2.18,11.56c-.87,3.2-1.89,4.79-3.07,4.79s-1.64-1.6-1.68-4.78A80.24,80.24,0,0,1,104.19,94.35Z" fill="#fff"/><polygon points="138.09 114.91 138.75 109.83 135.96 110.02 143.51 52.85 129.62 52.86 128.9 58.37 130.93 58.37 123.44 115.13 138.09 114.91" fill="#fff"/><path d="M151.26,115.36a8.19,8.19,0,0,0,1,0c.36,0,.71,0,1,0l3.72-3.19-.4,3,13.21,0,.66-5.07h-2.27L171,88.79c.77-5.75-.2-9.82-2.88-12.21a14.38,14.38,0,0,0-9.38-3.74c-.15,0-.26,0-.36,0h-.28a22.89,22.89,0,0,0-4.44.44,21.82,21.82,0,0,0-4.11,1.21l-.94,7.07h5.53l1.19-3.2a2.46,2.46,0,0,1,.59-.08h.54a3,3,0,0,1,3,1.47c.51,1,.57,2.8.26,5.21a25.1,25.1,0,0,0-2.54.34,17.71,17.71,0,0,0-2.73.79A23.14,23.14,0,0,0,146,91.3a16.42,16.42,0,0,0-4.83,10.1c-.07.51-.13,1-.18,1.59s-.06,1.11,0,1.69c.12,3.44,1.14,6.08,3.1,7.88A10.55,10.55,0,0,0,151.26,115.36Zm1.31-12.59c.1-.68.2-1.42.32-2.2a17.57,17.57,0,0,1,.57-2.36,15.69,15.69,0,0,1,2.35-5.35,7,7,0,0,1,3.2-2.71l-2.12,16.07a7.1,7.1,0,0,1-1.11,2c-.39.46-1.22,1-1.64.94a3,3,0,0,1-1.59-2.18A13.33,13.33,0,0,1,152.57,102.77Z" fill="#fff"/><path d="M94.85,78.9l.71-5.34H89l1.33-10q.43-3.27,2.19-4.36a7.29,7.29,0,0,1,3.93-1.07h1.88L99,53H93.09a15.1,15.1,0,0,0-9.83,3.59q-4.37,3.59-5.61,13.06l-.52,4h-2l-.7,5.34h2l-1.88,14.3h0l-4,30.76c-.29,2.2-1,3.65-2.19,4.37a7.52,7.52,0,0,1-3.93,1.07H62.55l-.68,5.18h5.88a15.07,15.07,0,0,0,9.83-3.6q4.38-3.57,5.62-13l1.47-11.86h0l3.58-27.18Z" fill="#fff"/><path d="M38.23,78.86,39,73.34l-8.15-.06L19,90.36l5-37.68H10.11L9.38,58.2h2L4.66,109.46l-2.05,0L1.89,115H15.77L18,98.41a20.2,20.2,0,0,1,3.57,7.19A31.28,31.28,0,0,1,22.64,115l13.81,0,.73-5.51h-2a36.39,36.39,0,0,0-2.53-11.29A23,23,0,0,0,28.37,91l8.51-12.21Z" fill="#fff"/><path d="M99.61,122.64a6.6,6.6,0,0,0-3.88-1,7.28,7.28,0,0,0-2.2.34,7.38,7.38,0,0,1-2.85,1.72,6.27,6.27,0,0,0-2.89,1.89,3.36,3.36,0,0,0-.58,2.39,2.71,2.71,0,0,0,.56,1.05,5.73,5.73,0,0,0,3.83,1.74,3.3,3.3,0,0,0,.51,0q4.9-1.35,5.45-1.56a6.13,6.13,0,0,0,3.73-3.15,2.31,2.31,0,0,0,0-.83A7.18,7.18,0,0,0,99.61,122.64Zm-2.26,5c-1.28.57-2.12.93-2.52,1.07a9.32,9.32,0,0,1-2.94.46c-.94-.28-1.5-.47-1.68-.55a1.46,1.46,0,0,1-1.06-1.16c.29-1.52,1-2.19,2.06-2,.53-.46,1.19-1,2-1.59a4.71,4.71,0,0,1,2.27-1c1.87,0,3.18.4,4,1.19l.2.52C99.85,125.62,99.09,126.65,97.35,127.67Z" fill="#fff"/><path d="M114.11,121.14l-.69-.06a7,7,0,0,0-3.43,1.11q-.49.27-3,1.77a2.57,2.57,0,0,0,.05-1.19,2.16,2.16,0,0,0-.7-1.14.64.64,0,0,0-.35-.12,1.62,1.62,0,0,0-.52.26,1.39,1.39,0,0,1-.48.26,36,36,0,0,1-1,4.35q-.55,2-1.14,4.32a5.52,5.52,0,0,0,1.42.65c.16,0,.25,0,.28,0a57.42,57.42,0,0,1,6-8.45c.24-.1,1-.32,2.18-.64a5.78,5.78,0,0,0,1.82-.77Z" fill="#fff"/><path d="M119.79,118a2.37,2.37,0,0,1-.56-.89.87.87,0,0,0-.94-.43,3.61,3.61,0,0,0-.55.58.81.81,0,0,0,.25.22c.24.22.48.46.72.7s.63.49.79.49l.31-.06a2.16,2.16,0,0,1,0-.33A2.19,2.19,0,0,0,119.79,118Z" fill="#fff"/><path d="M118.17,120a1.4,1.4,0,0,0-.77.31q-.34.8-1.8,4.41a12.8,12.8,0,0,0-1,4.66.86.86,0,0,0,.42.76,1.39,1.39,0,0,0,1,.25.9.9,0,0,0,.39-1.11,13.18,13.18,0,0,1,.91-3.77c.49-1.22,1-2.41,1.39-3.58a2.45,2.45,0,0,0,0-1.35C118.65,120.24,118.46,120,118.17,120Z" fill="#fff"/><path d="M132.54,124.63a4,4,0,0,0-3.45-1.46,4.3,4.3,0,0,0-3.34,1.16,1.14,1.14,0,0,0-.56-.18,1.21,1.21,0,0,0-.44.18,2.14,2.14,0,0,1-.35.18.78.78,0,0,1-.34-.09l-3,2a4.45,4.45,0,0,1-.6,1.23,1.84,1.84,0,0,0-.34,1.32c.11.51.58.9,1.38,1.16,1.12.12,2,.19,2.61.19A11.12,11.12,0,0,0,127,130a12.22,12.22,0,0,1-.1,7.29,9.5,9.5,0,0,1-5.3,5.39,3.24,3.24,0,0,0-.4.89.73.73,0,0,0,.45.43,1.61,1.61,0,0,0,.51.09c.72,0,1-.23.92-.7a9.09,9.09,0,0,0,5.34-6.1,21.08,21.08,0,0,0,.16-7.91,14.23,14.23,0,0,1,2.61-1.89c1.17-.74,1.66-1.54,1.46-2.4A1.4,1.4,0,0,0,132.54,124.63Zm-6,3.53a10.7,10.7,0,0,1-3,.86,3,3,0,0,1-1.27-.28,2.61,2.61,0,0,1,.82-2.05,5.48,5.48,0,0,1,2.09-1.35,2.08,2.08,0,0,1,1.23,1.72A2.81,2.81,0,0,1,126.5,128.16Zm3.64-1.78c-.39.19-1,.5-1.86,1a3.77,3.77,0,0,1-.57-1.25,1.53,1.53,0,0,1,.59-1.66h1.64a2.07,2.07,0,0,1,1.38.61A2.68,2.68,0,0,1,130.14,126.38Z" fill="#fff"/><path d="M140,118c-.13-.06-.31-.36-.57-.89a.85.85,0,0,0-.93-.43,3.16,3.16,0,0,0-.55.58.7.7,0,0,0,.25.22l.72.7c.37.33.63.49.79.49l.31-.06a1.34,1.34,0,0,1,0-.33Z" fill="#fff"/><path d="M138.34,120a1.45,1.45,0,0,0-.77.31l-1.8,4.41a13,13,0,0,0-1,4.66.85.85,0,0,0,.41.76,1.43,1.43,0,0,0,1,.25.9.9,0,0,0,.39-1.11,12.83,12.83,0,0,1,.9-3.77c.5-1.22,1-2.41,1.39-3.58a2.36,2.36,0,0,0,.06-1.35C138.83,120.24,138.64,120,138.34,120Z" fill="#fff"/><path d="M152.89,121.76l-.37-.4a4.24,4.24,0,0,0-.68,0,5.69,5.69,0,0,0-3.55,1.29c-.09.06-1,.84-2.83,2.35a1.28,1.28,0,0,1-.22-.46,1.94,1.94,0,0,1,.14-1,1.76,1.76,0,0,0,.15-.92,1.71,1.71,0,0,0-.33-.58,1.66,1.66,0,0,0-1.13.31l-2.8,8.46a2.36,2.36,0,0,0,2,.7,17.52,17.52,0,0,1,7.61-8.76l.33.21a12.16,12.16,0,0,1-.88,3.42,11.94,11.94,0,0,0-.89,3.41c.55.88,1.07,1.32,1.58,1.32a1.14,1.14,0,0,0,.42-.09,18.7,18.7,0,0,1-.11-2.27,2.64,2.64,0,0,1,.87-2,5.71,5.71,0,0,1,.66-2,3.77,3.77,0,0,0,.38-2.21A2.19,2.19,0,0,0,152.89,121.76Z" fill="#fff"/><path d="M165.38,122.83a6.46,6.46,0,0,0-4.66-2,2.53,2.53,0,0,0-1.92.7,1,1,0,0,0,1.17.92l.55,0,.51,0a1.94,1.94,0,0,1,.76.15c1.48.43,2.33,1.13,2.55,2.09a1.27,1.27,0,0,1,0,.55,11.74,11.74,0,0,0-9.89,2.3,1,1,0,0,0-.2.85c.14.64.82,1.26,2,1.87a7.58,7.58,0,0,0,2.64.52,12.27,12.27,0,0,0,4.36-1.07,28.6,28.6,0,0,1,4.11-1.47c0-.27-.11-.65-.23-1.17A11.22,11.22,0,0,0,165.38,122.83Zm-6,6a6.42,6.42,0,0,1-2.74-.59c.09-.45.55-.81,1.39-1.1l2.16-.74a3.87,3.87,0,0,0,1.18.13H162a2.45,2.45,0,0,1,.55,0,3.2,3.2,0,0,1,2.37.92A19.53,19.53,0,0,1,159.35,128.87Z" fill="#fff"/><path d="M176.16,107.91a.75.75,0,0,0-.74.43l-6.1,17.92a8.85,8.85,0,0,1-.35,1.84,4.17,4.17,0,0,0-.16,1.9,2.65,2.65,0,0,0,1.38,1.68,1,1,0,0,0,.6.19c.3,0,.45,0,.43-.19a6.16,6.16,0,0,1-.2-.73,14.27,14.27,0,0,1,.07-5,179,179,0,0,0,6-17.21,1,1,0,0,0,0-.31C177,108.08,176.66,107.91,176.16,107.91Z" fill="#fff"/><path d="M178.11,71.76a3.42,3.42,0,0,0-4.83,0,3.42,3.42,0,1,0,4.83,4.83,3.42,3.42,0,0,0,0-4.83Zm-.32,4.51a3,3,0,0,1-5.06-2.1,2.82,2.82,0,0,1,.87-2.08,3,3,0,0,1,4.19,4.18Z" fill="#fff"/><path d="M177.24,73.37a.92.92,0,0,0-.59-1,2.81,2.81,0,0,0-1-.14h-1.32V76H175V74.56h.53a1.64,1.64,0,0,1,.75.12.92.92,0,0,1,.35.86v.3l0,.12v0l0,0h.62l0-.05,0-.19v-.56a1.07,1.07,0,0,0-.2-.58.9.9,0,0,0-.64-.37,1.42,1.42,0,0,0,.55-.18A.83.83,0,0,0,177.24,73.37Zm-1,.64a1.7,1.7,0,0,1-.64.09H175V72.74h.58a1.83,1.83,0,0,1,.82.14h0A.66.66,0,0,1,176.2,74Z" fill="#fff"/></svg>