<svg xmlns="http://www.w3.org/2000/svg" width="213" height="42" viewBox="0 0 213 42"><path d="M23.13,16c0,4.78-2.31,8-8.16,8H13.12V8.79c.66,0,1.27,0,1.85,0,5.54,0,8.16,2.62,8.16,7.24m-6,14.64c10.48,0,17.09-5.39,17.09-14.79,0-10.33-7.08-14-18.62-14a124.66,124.66,0,0,0-13.71.77V39.41H13.12V30.63ZM167.7,16c0,4.78-2.31,8-8.16,8h-1.85V8.79c.66,0,1.27,0,1.85,0,5.54,0,8.16,2.62,8.16,7.24m-6,14.64c10.46,0,17.08-5.39,17.08-14.79,0-10.33-7.08-14-18.62-14a124.66,124.66,0,0,0-13.71.77V39.41h11.24V30.63ZM193.41,12c0-2,2-2.93,5.23-2.93a28.21,28.21,0,0,1,10,1.85l-.92-8a43.84,43.84,0,0,0-10.32-1.08c-9.08,0-15.24,3.58-15.24,11.09,0,12.94,17.56,10.33,17.56,16.33,0,2.31-1.7,3.54-5.86,3.54a33.74,33.74,0,0,1-12.78-2.92l1.24,8.48A37.2,37.2,0,0,0,194,40.18c9.39,0,17.09-3.08,17.09-12.33,0-12.32-17.71-10-17.71-15.86M138,2.59H126.75V39.41H138Zm-45.58,0H81.17V39.41H92.41ZM112,32V2.59H100.73V39.41h20.32L122.74,32ZM72.86,2.59H61.62V17.22H49.92V2.59H38.68V39.41H49.92V24.93h11.7V39.41H72.86Z" fill="#fff"/></svg>