<svg xmlns="http://www.w3.org/2000/svg" width="223" height="83" viewBox="0 0 223 83"><path d="M134.87,64.29a15.2,15.2,0,0,1-3.1,8.62A16.39,16.39,0,0,1,129,76c-2.49,1.88-4.47,1.72-4.64-1.68a4.51,4.51,0,0,1,.73-2.23,12.82,12.82,0,0,1,2.57-3.28A17.72,17.72,0,0,1,131,66.26a20,20,0,0,1,3.89-2ZM173,49.64a13,13,0,0,1,2.5-8.72c.88-1.27,5-5.79,6.34-4.17,1,1.22,0,3.28-.56,4.36-1,2.09-2.75,5.14-4.61,6.63-.27.22-.48.41-.78.63A6.24,6.24,0,0,1,173,49.64ZM65.05,32.86a1.13,1.13,0,0,1,1.42.36c.81,1.14,1.63,2.82-.1,3.55-.93.39-1.93-.63-2.15-1.24-.17-.45-.37-2.28.83-2.67Zm131,2.65a1.73,1.73,0,0,1-.65,1.51c-.52.35-1,0-1.49-.26a2.48,2.48,0,0,1-.55-4.07c1.86-1.48,2.68,1.23,2.69,2.82ZM155,46.92a38.59,38.59,0,0,1,4.31-15.06,36.28,36.28,0,0,1,4.88-7.23c.68-.83,3.3-3.41,4.38-1.93,1.28,1.75-.43,6.06-1.1,7.69a39.66,39.66,0,0,1-3.33,6.29,47.19,47.19,0,0,1-5.36,6.75c-.41.45-.78.8-1.2,1.23l-1.25,1.18A9.11,9.11,0,0,1,155,46.92ZM48.46,42.87a.87.87,0,0,1-.17-.48c-1-5.37.16-11.1,2-16.11.87-2.43,3-7.94,4.68-9.78,1-1.16,2-1.62,2,.84,0,4.55-1.74,10.05-3.19,13.9a95,95,0,0,1-4.55,10.25c-.23.44-.52,1-.71,1.38Zm-19.6,1.19C28.73,39.7,31.55,31.16,33,27a28.26,28.26,0,0,1,1.59-3.73c1.1-2.14,4.73-9.06,6.69-9.28,1,1.1-1,7.5-1.39,8.85A70.53,70.53,0,0,1,33.5,37.94c-.68,1.18-3.7,5.7-4.64,6.12ZM1.75,25.59v.32c.39.65.24.95.9,1.36A2.67,2.67,0,0,0,5.35,27c.39-.22.42-.15.54-.61,1.71-6.25,6-14.78,11.54-18.2a13.11,13.11,0,0,1,4.94-1.92c2.36-.4,4.78,2.42,2.34,7.05a72.71,72.71,0,0,1-9.17,13.78c-.69.86-1.4,1.58-2.1,2.46C9.65,34.28,5,41.72,4.61,48.27a10.44,10.44,0,0,0,4.2,9.45,5.27,5.27,0,0,0,3.37,1.22c7,.56,12.35-5,13-5.27a17.11,17.11,0,0,0,3.9,4.56,8.51,8.51,0,0,0,6.34,2.07,16.67,16.67,0,0,0,7-3.5,11.79,11.79,0,0,0,1.15-1c.35-.37.73-.76,1.08-1.08.84-.76,2.75-3.47,2.86-3.53.91-.45,2.57.47,3.42.68,5.72,1.41,11.68-2.66,15.19-6.63.18-.21.33-.34.51-.56a6.66,6.66,0,0,0,.49-.59,7.18,7.18,0,0,1,.34-.68,7.47,7.47,0,0,1-.44,1.92L66.5,46A21.45,21.45,0,0,0,64,49.57c-1,1.93-2.42,5.15-1.52,7.79A5.41,5.41,0,0,0,65,59.7c3.27,1.53,7.4-.46,9.46-2.92l.41-.53.07-.07c.13-.12,0,0,.14-.11a6.36,6.36,0,0,0,8.44,3.85,9.08,9.08,0,0,0,1.92-1.3c.66-.58,1.24-1.33,2-1.21.52.08.51.49.6,1a3.32,3.32,0,0,0,2.61,2.34,5,5,0,0,0,2.67-.49,4.19,4.19,0,0,0,1.89-1.41c.52-.61,1-1.14,1.52-1.78A82.41,82.41,0,0,0,105.72,43c.48-.92,1.83-3.83,2.21-4.38,1.59-2.28,3.21-.81,3,1.19-.26,2.74-3,6.5-4.63,8.5-1.74,2.18-4.55,5.38-4.73,8.46a3.18,3.18,0,0,0,.77,2.51c.37.37,1.34,1.23,2.18,1.12,2.84-.35,7.07-8.36,8.43-11.22A19.76,19.76,0,0,0,114,47c1-3.26,3.34-9.15,6.52-9.9a2.16,2.16,0,0,1,1.38.11c.53.2.64.38.66,1a6.25,6.25,0,0,1-.59,2.72,40.6,40.6,0,0,1-2.31,4.29c-.85,1.38-1.72,2.69-2.63,3.9-.48.63-.94,1.24-1.45,1.85-1.51,1.79-2.15,5.16-.37,7.3a7,7,0,0,0,1.87,1.42,4.18,4.18,0,0,0,2.68.56,12.21,12.21,0,0,0,4.65-1.86l2.89-2a1,1,0,0,1,1.16.44c.63.85.41,1.36,1.27,2,1.51,1.15,3.61,1,5.37.51,1-.27,2-.75,2.47-.87a2.19,2.19,0,0,1-1.28,1.45,30.46,30.46,0,0,0-5.81,2.4,27.07,27.07,0,0,0-3.33,2.11A17.83,17.83,0,0,0,122,70.16c-2.18,3.71-2.59,8,1.24,10.56.28.19.62.34.87.55h2.54c.68-.3,2.42-.09,4.85-1.55,3-1.8,3.93-4.41,5.19-7.59.6-1.51,1.2-3.09,1.72-4.68.26-.81.53-1.58.76-2.39.83-2.83.14-2.34,1.68-3.1l3.22-1.63A48,48,0,0,0,151,56.1c.31-.25.54-.56.82-.79a9.79,9.79,0,0,0,1.23,2.11c1.74,2.11,4.25,3,7.17,3a17.86,17.86,0,0,0,8.86-3c.36-.24.66-.55,1-.75.5.36,1,.84,1.52,1.21a9.5,9.5,0,0,0,6.61,1.53,12.55,12.55,0,0,0,4.17-1.36A8.5,8.5,0,0,0,184.05,57a75,75,0,0,0,7.17-6.62c.86-1,1.69-1.87,2.56-2.95a34.6,34.6,0,0,0,2.32-3.2c.37-.59.62-1.13,1.43-1.34,1-.26,1.12,1.13.9,1.78-.27.81-2.61,3.06-3.1,3.77-1.44,2-2.64,4.88-1.49,7.33a6.29,6.29,0,0,0,2.77,2.75,14.52,14.52,0,0,0,4,1.46c2.58.45,6.44-2.12,7.8-3.18a36,36,0,0,0,5.63-5.41,33.89,33.89,0,0,0,4.6-6.44c1.43-2.88-.06-5.09-2.53-4.08-.81.33-.89.71-1.35,1.41a93.65,93.65,0,0,1-5.8,8.06,15.12,15.12,0,0,1-4.18,4.1c-1.66,1-4.45,2.16-5.71-.24a4.18,4.18,0,0,1-.51-2.2,13.79,13.79,0,0,1,2.09-3.44,16.1,16.1,0,0,0,2.15-3.37c1-2,1-4.59-1.11-5.86a4.64,4.64,0,0,0-2.08-.76c.23-1.91.61-2.45.43-4.72a7.73,7.73,0,0,0-1.35-4c-2.62-3.47-7.87-2.92-9.94,1.32a10.76,10.76,0,0,0-1,4.35,6.24,6.24,0,0,0,4.85,5.71,19.84,19.84,0,0,1-1.55,2.56c-2.81,4.17-5.69,7.86-10.2,10.33a7.23,7.23,0,0,1-3.19.94,3.51,3.51,0,0,1-2.88-1.24c.13-.15,1.43-1,1.72-1.16a27.88,27.88,0,0,0,6-5.62,18.63,18.63,0,0,0,3.06-5.62,13,13,0,0,0,.67-5.08c-.94-6.36-5.92-5.85-10-2.63a23.22,23.22,0,0,0-5.57,6,12.49,12.49,0,0,0-2,9.2,11.77,11.77,0,0,1,.28,3.3c-.06.33-.07.28-.3.44s-.56.41-.87.61c-2.46,1.61-6,2.9-9,1.72-1-.38-2.95-1.7-3.27-2.59a46,46,0,0,0,4.54-4.18,58.73,58.73,0,0,0,8.38-10.93,37.89,37.89,0,0,0,4.12-9.86c.85-3.59,1.38-9.58-2-10.8a6.62,6.62,0,0,0-5.53.91c-3.9,2.33-7.35,8-9.18,11.87a64.9,64.9,0,0,0-4,9.95,39,39,0,0,0-1.25,9.22,18.6,18.6,0,0,0,.37,3.18l-4.31,2.73c-.8.48-3.78,2.29-4.87,2.13a6.89,6.89,0,0,1,.41-2.68,28.92,28.92,0,0,1,2.21-4.11c1.14-2.05,2.2-4.19,3.17-6.33A25.08,25.08,0,0,0,150,36.32a2.48,2.48,0,0,0-.71-2.45c-1.55-1.34-3.25.93-3.82,1.74a28.83,28.83,0,0,0-2.22,4.11c-.7,1.5-1.32,2.9-1.94,4.46-1.21,3-2.22,6.19-3.18,9.46-.22.75-.24,1.12-1.61,1.56-1.82.57-3.22-.42-4.2-1.8-2.5-3.55,2.27-10.78,4.45-13.29a19.22,19.22,0,0,1,5.77-3.78,5.13,5.13,0,0,1,1.27-.3c.51-.05.61-.4.81-.79,1-2.09-.09-3.1-2.28-3.21a5,5,0,0,0-2.62.53,17.54,17.54,0,0,0-7.21,5.51c-4.14,5.33-3.91,10.72-4.32,11.49a26.33,26.33,0,0,1-3.08,3.24,12,12,0,0,1-1.86,1.38,4.15,4.15,0,0,1-2.41.69c-2.72-.24-.94-2.35,0-3.49a34.66,34.66,0,0,0,5.84-10c1.44-4.18.67-7.06-2.91-8.42-2.83-1.07-4.92.13-6.94,1.8A15.38,15.38,0,0,0,115,36.19l-.17-.39c-.75-2.56-2-3.62-5-3.17A6.67,6.67,0,0,0,106.68,34a7,7,0,0,0-2,2.47C102.87,39.55,97,49.7,94.58,52.93c-.73,1-3.15,3.46-3.28.55a3.56,3.56,0,0,1,.31-1.9,24.28,24.28,0,0,1,1.47-3A22,22,0,0,1,94.94,46c1.47-2.11,4.27-6.81,3.3-9.73-.23-.69-.47-.84-1.22-1-3.11-.7-4.44,2.9-5.57,5.41-.91,2-1.85,4.16-2.63,6.26-.6,1.63-1.26,3.26-1.71,5a3,3,0,0,1-.75,1.54C85.23,54.93,83.05,57,80.66,55a4.36,4.36,0,0,1-1.75-2.7C78.26,49,80.47,44.83,82,42.26c3.44-5.73,6.93-4.92,8-5.36s3.15-1.31,2.69-2.65a4.63,4.63,0,0,0-.25-.89c-.8-1.43-4.18-.63-5.37-.32a12,12,0,0,0-5.79,3.08,16.89,16.89,0,0,0-3.82,5.06c-2,3.79-2.1,7.51-2.61,8.5-1.19,2.37-4,7-7.22,5.8a1.83,1.83,0,0,1-1.23-1c-.62-2,1.75-4.27,2.83-6s3.55-5.82,1.68-8.07c-.41-.5-1-.2-1-1.22,0-.76.72-2.42.92-3.56.64-3.79-1.08-5.92-4-6.89a3,3,0,0,0-1.9-.18c-4.15.72-5.47,4.05-4.5,8.34a4.51,4.51,0,0,0,2,2.45c.59.29,1.18.06,1.17,1.05,0,.62-.49,1-.8,1.43a16.14,16.14,0,0,1-4.57,4.32,9.17,9.17,0,0,1-3.19,1.24,8.12,8.12,0,0,1-3.92-.32c.1-.38,1.51-3.06,1.81-3.67a98,98,0,0,0,4.8-11.68c1.68-5,3.85-13,2.21-18.63-1-3.52-3-5.18-6-2.69a21.85,21.85,0,0,0-4.51,6.46,48.93,48.93,0,0,0-4.81,29.69c.2,1.29.41,1.14-.24,2.06-1.9,2.72-5.4,7-9.28,7.21a5.47,5.47,0,0,1-4-1.5,8.41,8.41,0,0,1-1.31-1.45c-.37-.49-.94-1.08-.63-2a22.1,22.1,0,0,1,2.32-3.13c5.53-7.11,10.74-16.68,12.85-25.64a35.12,35.12,0,0,0,1-9.87,4.3,4.3,0,0,0-.46-2.24c-1.45-2.16-3.66-2.15-5.68-.87a14.09,14.09,0,0,0-2.88,2.57,20.27,20.27,0,0,0-2.39,3.13c-3.74,6.59-7.6,16.42-8.9,24a35.11,35.11,0,0,0-.5,8.81c.1,1.18.19.9-1.69,2.33-.53.41-1,.75-1.61,1.15-3.25,2.19-8.93,5-11.19.51-1.41-2.84-.79-6.14.3-9a33.22,33.22,0,0,1,3.86-7.12,43.89,43.89,0,0,1,4.29-5.33A25.07,25.07,0,0,0,20.37,28,52.29,52.29,0,0,0,27.7,16.11c1.5-3.58,2.7-9.63-.76-12.73A7,7,0,0,0,24.24,2a7.79,7.79,0,0,1-1.17-.24H21.29c-.27.13-1.73.37-2.25.55a20,20,0,0,0-5.29,2.84A39.77,39.77,0,0,0,8.7,10.9,44.15,44.15,0,0,0,3,21.52L1.75,25.59Z" fill="#fff" fill-rule="evenodd"/><path d="M215.8,57.22a5.62,5.62,0,0,1,2.69.7,5.06,5.06,0,0,1,2,2,5.48,5.48,0,0,1,0,5.45,5.07,5.07,0,0,1-2,2,5.43,5.43,0,0,1-5.44,0,5.1,5.1,0,0,1-2-2,5.48,5.48,0,0,1,0-5.45,5.11,5.11,0,0,1,2.05-2,5.59,5.59,0,0,1,2.68-.7Zm0,.91a4.58,4.58,0,0,0-2.24.59,4.23,4.23,0,0,0-1.7,1.68,4.6,4.6,0,0,0-.62,2.28,4.49,4.49,0,0,0,.61,2.26,4.29,4.29,0,0,0,1.69,1.69,4.56,4.56,0,0,0,4.52,0,4.29,4.29,0,0,0,1.69-1.69,4.58,4.58,0,0,0,.6-2.26,4.69,4.69,0,0,0-.61-2.28A4.19,4.19,0,0,0,218,58.72a4.54,4.54,0,0,0-2.23-.59Zm-2.39,7.57V59.83h2a5.36,5.36,0,0,1,1.5.15,1.55,1.55,0,0,1,.55,2.56,1.84,1.84,0,0,1-1.22.53,1.43,1.43,0,0,1,.5.31,6.25,6.25,0,0,1,.87,1.17l.72,1.15h-1.16l-.52-.93a4.86,4.86,0,0,0-1-1.37,1.25,1.25,0,0,0-.76-.2h-.55v2.5Zm1-3.31h1.14a1.82,1.82,0,0,0,1.13-.25.78.78,0,0,0,.3-.65.77.77,0,0,0-.15-.46.84.84,0,0,0-.4-.31,2.87,2.87,0,0,0-.95-.1h-1.07v1.77Z" fill="#fff"/></svg>