<svg xmlns="http://www.w3.org/2000/svg" width="278" height="49" viewBox="0 0 278 49"><polygon points="247.7 4.34 234.71 20.85 234.71 4.34 224.81 4.34 224.81 47.25 234.71 47.25 234.71 31.03 246.79 47.25 257.81 47.25 241.24 25.06 257.81 4.34 247.7 4.34" fill="#fff"/><path d="M269.33,11.23a5,5,0,0,0-.77-.49,3.42,3.42,0,0,0,2.1-.85,2.53,2.53,0,0,0,.64-1.76A3.29,3.29,0,0,0,271,6.66a2.11,2.11,0,0,0-1.13-.91,4.83,4.83,0,0,0-2-.28h-4.28v9.62h1.27V10.87h2a.23.23,0,0,1,.21.08,1.19,1.19,0,0,1,.56.2,3,3,0,0,1,.64.64,14.11,14.11,0,0,1,.91,1.33l1.34,2h1.54l-1.62-2.53A4.82,4.82,0,0,0,269.33,11.23Zm-1.69-1.48h-2.8V6.52h3.09a2.24,2.24,0,0,1,1.54.49A1.37,1.37,0,0,1,270,8.13a2.11,2.11,0,0,1-.27.85,1.79,1.79,0,0,1-.78.63A6.55,6.55,0,0,1,267.64,9.75Z" fill="#fff"/><path d="M276,10.18a8.53,8.53,0,0,0-17.06,0v.06a8.54,8.54,0,0,0,17.07,0v-.06Zm-8.5,7a7,7,0,0,1-6.95-6.89v-.06h0a6.92,6.92,0,0,1,13.84,0h0l.07.06A7,7,0,0,1,267.5,17.13Z" fill="#fff"/><polygon points="53.82 4.21 38.16 29.91 38.16 4.21 27.35 4.21 11.76 29.91 11.76 4.21 1.99 4.21 1.99 47.25 11.76 47.25 29.03 19.79 29.03 47.25 38.16 47.25 64.98 4.21 53.82 4.21" fill="#fff"/><path d="M66.39,9,42.94,47.25H54.31L59.51,39H70.33v8.21h9.12V4.2H69.34Zm3.94,16.29v7h-7.8l7.8-13.76Z" fill="#fff"/><polygon points="92.16 4.21 83.1 4.21 83.1 47.25 106.49 47.25 106.49 39.03 92.16 39.03 92.16 4.21" fill="#fff"/><polygon points="151.22 4.21 141.11 4.21 124.46 30.96 124.46 4.21 115.06 4.21 95.11 35.52 106.48 35.52 115.06 21.2 115.06 47.25 126.22 47.25 141.46 21.2 141.46 47.25 151.22 47.25 151.22 47.25 151.22 46.55 151.22 4.21" fill="#fff"/><path d="M174.82,9.19l-23.6,38.06h11.72L167.72,39h10.81v8.21H188V4.2H177.83Zm3.71,16.08v7H171l7.51-13.76Z" fill="#fff"/><path d="M221.3,23.31a25.53,25.53,0,0,0,1.27-4.85,20.77,20.77,0,0,0-.57-6.11c-1.68-4.28-5.54-6.88-10.11-7.79-1.33-.14-3.8-.35-3.8-.35H192.23v43h10V30.81c3.27,0,4.27,3.31,5.19,5.27l5.07,11.17h10.12l-8.78-18.33C217.3,27.86,220,26.32,221.3,23.31Zm-13.42,1.05h-5.69V12.92h5.69c3.87.27,5.91,1.54,5.91,5.54C213.79,22.18,211.75,24.15,207.88,24.36Z" fill="#fff"/></svg>