<svg xmlns="http://www.w3.org/2000/svg" width="285" height="74" viewBox="0 0 285 74"><path d="M195.91,12.42c1.38.74,3.26-.09,4.2-1.85s.55-3.78-.83-4.51-3.27.1-4.2,1.85S194.52,11.69,195.91,12.42Z" fill="#fff"/><path d="M30,24S23.1,5.39,57.84,6.36c0,0-.49,1.72-3.92,4.9s-6.11,11.25-7.83,14.68S38,52.36,32.15,57A12.41,12.41,0,0,0,43.3,52.92c4.09-4.7,5.87-14.22,8-20C53.81,26.05,56.38,19,60,12.59c1-1.8,2.27-5.26,4.36-6.06,0,0,19.45,2.15,21.64-4.57a85.26,85.26,0,0,1-20.31,2C55.88,3.43,36.31,1,28.23,9.3,22.36,15.66,23.83,21.29,30,24Z" fill="#fff"/><path d="M181.08,46.86c5.16,3,11.95-2.71,13.88-4.5a7.27,7.27,0,0,0,3.47,4.71c5.68,3.09,12.9-3.15,15.28-5.46-.12,2.33.51,4.29,2.27,5.46,5.64,3.76,14-5.44,14-5.44-1.25,10,5.64,9.62,5.64,9.62-.83-12.12,4.51-23,6.27-27.17,1.36-3.19,2.51-2.93,2.51-2.93l.07-2.78c-10.24-1.47-14.61.44-19.09,3.62-4,2.84-9.23,10-11,16.18l0-.51s-11.7,11.71-12.54,2.93,9-21.73,13-21.11-.21,6.06-.21,6.06l4.6-1.67c4.59-6.06-4.46-10.33-13.38-3.76-7.23,5.33-10.9,12.73-11.14,18.57a11.08,11.08,0,0,1-6.62,5c-5.43-.21,8.2-25.13,8.2-25.13l-6.68.63S174.6,42.89,181.08,46.86Zm55.59-27s.83.63-.21,3.13-7.52,19.44-14.63,20.69C216.82,44.77,227.89,19.27,236.67,19.9Z" fill="#fff"/><path d="M114.17,39.27c-2.84,7.29-6.21,14.88-9.36,18,0,0,7.94,1.88,12.33-8.15,2.77-6.34,5.79-18.67,10.48-28.74h8.74l-.21,1.78c-5.42,3.15-8.54,8.69-9.73,14.7-1,5.13.27,10.92,6.62,10.73,12.31-.35,16.87-17.86,19.41-23.34,2.72-5.85,6.9-3.55,6.06.63s-9.19,22.15-9.19,22.15l6.48-.42c.83-4.18,6.48-13.38,9-16.72s10-12.12,9.62-6.9-6.9,11.08-8,19S172.1,50,172.1,50c-1.88-7.52,5.64-18.18,5.64-18.18,3.55-6.27,4.18-11.91,3.34-13.16-3.34-2.72-11.07.83-14.21,5.22s-3.34,3.55-2.3-1.46-1.25-4.6-1.25-4.6l-15.88,3.55c.63,10.87-7.53,24.24-11.91,23s-.84-15,4-19.64c4.8-6.9,6.89-5.65,6.89-5.65l.42-.62H129.1S131.35,6,144,4.85c5-.41,11.14,4.18,5.29,9.41,0,0,7.11-2.26,6.06-7.32s-10.45-4.59-10.45-4.59C125.29,4,122.88,18.54,122.88,18.54l-5.33,1.88h4c-.81,1.72-1.6,3.53-2.3,5.33-.89,2.28-2.07,5.59-3.43,9.23-2.66,3-10.1,10.48-16.32,9.48-3-.49-2.84-7.13.45-8.84,4.16-2.17,15-8.57,14.28-16.35-3.13-7.31-20.37,2.15-23.4,18.18C87.93,52.67,104.77,48.56,114.17,39.27Zm-5-19.16c2.5,4.6-9.83,13.16-9.83,13.16C98.75,29.93,104.81,18.44,109.2,20.11Z" fill="#fff"/><path d="M65.45,43.58c-2.92-.83-2.87-6.25.41-8,4.16-2.17,15-8.57,14.29-16.35C77,12,59.78,21.42,56.74,37.45,54,52.12,68.8,48.6,77.29,40.52,75.93,50.1,83,51.25,83,51.25a43.3,43.3,0,0,1-.13-4.6,18.65,18.65,0,0,1,1-5.88c3.2-9.06,14.46-34,14.46-34l-6,.84s-5,10.87-13.1,27.86C77.12,37.58,69.66,44.79,65.45,43.58Zm9.68-23.47c2.51,4.6-9.82,13.16-9.82,13.16C64.69,29.93,70.75,18.44,75.13,20.11Z" fill="#fff"/><path d="M142.5,70c-77.86,0-141,.47-141,1S64.64,72,142.5,72s141-.47,141-1.05S220.36,70,142.5,70Z" fill="#fff"/></svg>