<svg xmlns="http://www.w3.org/2000/svg" width="253" height="57" viewBox="0 0 253 57"><path d="M158.35,28.5a16,16,0,1,0,16-16A16,16,0,0,0,158.35,28.5Zm84-26.57a3.17,3.17,0,0,0-3.16,3.16V40a3.17,3.17,0,0,0,3.16,3.16h5.82A3.16,3.16,0,0,0,251.34,40V5.09a3.15,3.15,0,0,0-3.15-3.16Zm-2.65,35.22a5.57,5.57,0,1,1,5.57,5.56,5.57,5.57,0,0,1-5.57-5.56Zm.59,0a5,5,0,1,1,5,5,5,5,0,0,1-5-5Zm5.8.29a1.51,1.51,0,0,0,1.5-1.68,1.71,1.71,0,0,0-1.78-1.65h-2.6v6.07h.9V37.52h1l1.62,2.61h1.12l-1.74-2.69Zm-.22-.72h-1.76V34.91h1.78a.93.93,0,0,1,.88.93.91.91,0,0,1-.9.87ZM112.3,26.81A14.21,14.21,0,0,1,134.63,15,14.21,14.21,0,0,1,157,26.68V39.91a3.35,3.35,0,0,1-3.16,3.16H148a3.35,3.35,0,0,1-3.16-3.16V26.68a2.06,2.06,0,0,0-4.12,0V39.91a3.35,3.35,0,0,1-3.16,3.16h-5.82a3.35,3.35,0,0,1-3.16-3.16V26.81a2.1,2.1,0,0,0-2.06-2.19,2.06,2.06,0,0,0-2.06,2.06V39.91a3.35,3.35,0,0,1-3.16,3.16h-5.83a3.35,3.35,0,0,1-3.16-3.16V26.81Zm-1.5-9.72a3.15,3.15,0,0,0-3.15-3.15h-5.83a3.15,3.15,0,0,0-3.15,3.15V30.62a2.06,2.06,0,0,1-4.12,0V17.15a3.21,3.21,0,0,0-3.16-3.21H85.55a3,3,0,0,0-3.15,2.91V32.38A9.51,9.51,0,0,0,92.07,42h.17a8,8,0,0,0,6.05-2.23c.48-.62.73-.49.73-.13,0,3.5-3.7,6.52-6.7,6.49l-4.22,0c-1.26,0-2,1.45-2,2.27,0,1.23,0,1.79,0,3.16,0,3.09,2.72,3.69,6.34,3.69h4.25c4.62,0,14.07-5.57,14.07-15V17.09Zm-97,11.41V52.05a3.15,3.15,0,0,1-3.15,3.15H4.81a3.15,3.15,0,0,1-3.15-3.15V28.5a16,16,0,1,1,32,0c0,8.85-7.28,16-15,16a2.86,2.86,0,0,1-2.92-2.91V35.05c0-1.77,1.7-2.67,2.92-2.85,1.86-.28,2.91-1.56,2.91-3.7a3.89,3.89,0,1,0-7.77,0ZM38.31,1.8h5.83A3.16,3.16,0,0,1,47.29,5V39.91a3.15,3.15,0,0,1-3.15,3.15H38.31a3.15,3.15,0,0,1-3.15-3.15V5A3.15,3.15,0,0,1,38.31,1.8ZM68.68,28.5V39.87A3.16,3.16,0,0,0,71.84,43h5.82a3.17,3.17,0,0,0,3.16-3.16V28.5a16,16,0,0,0-32,0c0,8.85,7.28,16,15,16a2.85,2.85,0,0,0,2.91-2.91V35.05c0-1.77-1.69-2.67-2.91-2.85-1.87-.28-2.91-1.56-2.91-3.7a3.88,3.88,0,1,1,7.76,0ZM204,28.6V5.06a3.15,3.15,0,0,0-3.15-3.16H195a3.15,3.15,0,0,0-3.15,3.16V28.6a16,16,0,1,0,32,0c0-8.85-7.28-16-15.05-16a2.85,2.85,0,0,0-2.91,2.91v6.56c0,1.77,1.69,2.67,2.92,2.85,1.87.28,2.91,1.55,2.91,3.7a3.89,3.89,0,0,1-7.77,0Zm24.48-14.53h5.82a3.16,3.16,0,0,1,3.16,3.15V40a3.16,3.16,0,0,1-3.16,3.16h-5.82A3.17,3.17,0,0,1,225.32,40V17.22A3.16,3.16,0,0,1,228.48,14.07Zm4.39-3a6.8,6.8,0,0,1-9.44-1.83L218.5,1.9h16.18a6.54,6.54,0,0,1-1.81,9.22ZM170.49,28.79a3.88,3.88,0,1,1,3.88,3.88,3.88,3.88,0,0,1-3.88-3.88Z" fill="#fff"/></svg>