<svg xmlns="http://www.w3.org/2000/svg" width="1024" height="1024" viewBox="0 0 1024 1024"><rect width="1024" height="1024"/><path d="M255.69,327.27l98.94,300H156.76ZM71.8,888.63l50.55-153.78H390.12l50.54,153.78H572.93l-258.09-742H196.55l-258.09,742Z" fill="#fff"/><path d="M815.62,502.32V610.94H963C954.35,728.15,907,784.07,812.4,784.07c-98.94,0-152.71-64.52-152.71-224.75V464.68c0-160.23,53.77-224.75,152.71-224.75,83.88,0,131.19,45.16,149.47,131.19h120.45C1058.66,215.19,963,131.31,812.4,131.31c-165.61,0-277.45,100-277.45,338.75v89.26c0,233.36,111.84,333.37,277.45,333.37,166.68,0,273.14-100,273.14-333.37v-57Z" fill="#fff"/></svg>